<?xml version="1.0" encoding="UTF-8" standalone="no"?>
<svg width="485px" height="435px" viewBox="0 0 485 435" version="1.1" xmlns="http://www.w3.org/2000/svg" xmlns:xlink="http://www.w3.org/1999/xlink">
    <!-- Generator: Sketch 3.6.1 (26313) - http://www.bohemiancoding.com/sketch -->
    <title>Slice 1</title>
    <desc>Created with Sketch.</desc>
    <defs></defs>
    <g id="Page-1" stroke="none" stroke-width="1" fill="none" fill-rule="evenodd">
        <g id="ic_cloud_black_24px-copy" transform="translate(111.500000, 231.000000) scale(-1, 1) translate(-111.500000, -231.000000) translate(1.000000, 157.000000)" fill="#F9F9F9" stroke="#E7E7E7">
            <g id="Group">
                <path d="M178.18125,55.6183333 C171.919583,23.8495833 144.018333,0 110.5,0 C83.8879167,0 60.775,15.1016667 49.2645833,37.2016667 C21.5475,40.1483333 0,63.6295833 0,92.0833333 C0,122.562917 24.7704167,147.333333 55.25,147.333333 L174.958333,147.333333 C200.373333,147.333333 221,126.706667 221,101.291667 C221,76.9816667 202.122917,57.2758333 178.18125,55.6183333 L178.18125,55.6183333 Z" id="Shape"></path>
            </g>
        </g>
        <g id="ic_cloud_black_24px-copy" opacity="0.886835354" transform="translate(417.000000, 152.000000) scale(-1, 1) translate(-417.000000, -152.000000) translate(350.000000, 107.000000)" fill="#F9F9F9" stroke="#E7E7E7">
            <g id="Group">
                <path d="M108.007128,34.031545 C104.211528,14.7847841 87.2987842,0.335766423 66.9811644,0.335766423 C50.8498673,0.335766423 36.8396404,9.48495134 29.8624358,22.8740024 C13.0613271,24.6592092 0,38.885076 0,56.1234793 C0,74.5892123 15.0149443,89.5961071 33.4905822,89.5961071 L106.05351,89.5961071 C121.459178,89.5961071 133.962329,77.0996594 133.962329,61.7022506 C133.962329,46.9742944 122.519713,35.0357238 108.007128,34.031545 L108.007128,34.031545 Z" id="Shape"></path>
            </g>
        </g>
        <g id="ic_cloud_black_24px-copy" opacity="0.695429104" transform="translate(274.000000, 84.000000)" fill="#F9F9F9" stroke="#E7E7E7">
            <g id="Group">
                <path d="M74.4455908,24.552354 C71.829415,10.9868659 60.1720434,0.802919708 46.1678082,0.802919708 C35.0490611,0.802919708 25.3922945,7.25144161 20.5831478,16.6883029 C9.0027226,17.9465511 0,27.9732162 0,40.1231752 C0,53.1381797 10.3492837,63.7153285 23.0839041,63.7153285 L73.0990297,63.7153285 C83.7176256,63.7153285 92.3356164,54.9075912 92.3356164,44.0552007 C92.3356164,33.6746533 84.4486159,25.2601186 74.4455908,24.552354 L74.4455908,24.552354 Z" id="Shape"></path>
            </g>
        </g>
        <g id="ic_cloud_black_24px-copy" opacity="0.695429104" transform="translate(165.000000, 0.000000)">
            <g id="Group">
                <path d="M15.8047945,0 L65,0 L65,50.0072993 L15.8047945,50.0072993 L15.8047945,0 Z" id="Shape"></path>
                <path d="M39.6636344,41.0961192 C38.2697703,33.90757 32.0588756,28.5109489 24.5976027,28.5109489 C18.6736801,28.5109489 13.5286815,31.9281144 10.9664312,36.9288443 C4.79653253,37.5956083 0,42.9088838 0,49.3473236 C0,56.2441636 5.51396261,61.8491484 12.2988014,61.8491484 L38.9462043,61.8491484 C44.603653,61.8491484 49.1952055,57.1818005 49.1952055,51.4309611 C49.1952055,45.9301582 44.993115,41.471174 39.6636344,41.0961192 L39.6636344,41.0961192 Z" id="Shape" stroke="#E7E7E7" fill="#F9F9F9"></path>
            </g>
        </g>
        <g id="ic_cloud_black_24px" transform="translate(115.000000, 147.000000)">
            <g id="Group">
                <path d="M0,0 L288,0 L288,288 L0,288 L0,0 Z" id="Shape"></path>
                <path d="M232.2,120.48 C224.04,79.08 187.68,48 144,48 C109.32,48 79.2,67.68 64.2,96.48 C28.08,100.32 0,130.92 0,168 C0,207.72 32.28,240 72,240 L228,240 C261.12,240 288,213.12 288,180 C288,148.32 263.4,122.64 232.2,120.48 L232.2,120.48 Z" id="Shape" stroke="#EBEBEB" fill="#FFFFFF"></path>
            </g>
        </g>
    </g>
</svg>