<svg xmlns="http://www.w3.org/2000/svg" viewBox="0 0 182.25 182.25"><title>fedora</title><path d="M186.25,95.13A91.13,91.13,0,0,0,4,95.06v70.52a20.71,20.71,0,0,0,20.72,20.67H95.16a91.12,91.12,0,0,0,91.09-91.12" transform="translate(-4 -4)" style="fill:#294172"/><path d="M56.54,101H89.29v32.75A32.75,32.75,0,1,1,56.54,101Z" transform="translate(-4 -4)" style="fill:none;stroke:#3c6eb4;stroke-width:29.209999084472656px"/><path d="M121.88,101.07H89.13V68.32A32.75,32.75,0,1,1,121.88,101.07Z" transform="translate(-4 -4)" style="fill:none;stroke:#3c6eb4;stroke-width:29.209999084472656px"/><path d="M99.31,91v42.68a42.77,42.77,0,0,1-42.77,42.77,34,34,0,0,1-9.45-1.27c-4.84-1.27-8.79-5.23-8.79-9.84,0-5.58,4-9.63,10.1-9.63,2.88,0,3.92.55,8.14,0.55a22.58,22.58,0,0,0,22.57-22.54V114.13A3.19,3.19,0,0,0,75.92,111H61.09A10,10,0,1,1,61.2,91" transform="translate(-4 -4)" style="fill:#fff"/><path d="M79.11,111V68.37A42.77,42.77,0,0,1,121.88,25.6a34,34,0,0,1,9.45,1.27c4.84,1.27,8.79,5.23,8.79,9.84,0,5.58-4,9.63-10.1,9.63-2.88,0-3.92-.55-8.14-0.55A22.58,22.58,0,0,0,99.3,68.33V87.95a3.19,3.19,0,0,0,3.19,3.18h14.83a10,10,0,1,1-.11,19.91" transform="translate(-4 -4)" style="fill:#fff"/><path d="M170.53,170.48v-3.79l-1.73,4-1.68-4v3.79h-1v-6h1l1.67,3.82,1.64-3.82h1v6h-1Zm-7.07-5v5h-1v-5h-1.7v-1h4.41v1" transform="translate(-4 -4)" style="fill:#3c6eb4"/></svg>