<svg xmlns="http://www.w3.org/2000/svg" xmlns:xlink="http://www.w3.org/1999/xlink" viewBox="0 0 154.13 183.53"><defs><radialGradient id="a" cx="-13.17" cy="-2389.68" r="52.01" gradientTransform="matrix(1.48, 0, 0, -0.4, 114.45, -780.85)" gradientUnits="userSpaceOnUse"><stop offset="0" stop-color="#3f2600" stop-opacity="0.6"/><stop offset="1" stop-color="#3f2600" stop-opacity="0"/></radialGradient><linearGradient id="b" x1="-1228.41" y1="-513.27" x2="-1228.34" y2="-495.82" gradientTransform="matrix(-0.96, -0.01, 0.04, -2.56, -1031.65, -1176.74)" gradientUnits="userSpaceOnUse"><stop offset="0" stop-color="#ffeed7"/><stop offset="1" stop-color="#bdbfc2"/></linearGradient><linearGradient id="c" x1="-103.06" y1="-1085.76" x2="-104.64" y2="-1110.33" gradientTransform="matrix(1.41, -0.08, 0.04, -1.07, 286.82, -1164.36)" gradientUnits="userSpaceOnUse"><stop offset="0" stop-color="#fff" stop-opacity="0.8"/><stop offset="1" stop-color="#fff" stop-opacity="0"/></linearGradient><linearGradient id="d" x1="103.16" y1="-740.74" x2="103.52" y2="-731.49" gradientTransform="matrix(1.07, -0.06, -0.09, -1.64, -97.56, -1163.96)" xlink:href="#b"/><linearGradient id="e" x1="-1058.9" y1="-655.96" x2="-1059.13" y2="-647.48" gradientTransform="matrix(-1.48, 0.04, -0.04, -1.9, -1487.75, -1157.05)" xlink:href="#b"/><linearGradient id="f" x1="-2629.45" y1="-1531.07" x2="-2630.06" y2="-1541.76" gradientTransform="matrix(-0.39, -0.03, 0.06, -0.58, -841.42, -933.37)" gradientUnits="userSpaceOnUse"><stop offset="0" stop-color="#fff" stop-opacity="0.65"/><stop offset="1" stop-color="#fff" stop-opacity="0"/></linearGradient><linearGradient id="g" x1="1775.18" y1="-2072.48" x2="1774.49" y2="-2082.89" gradientTransform="matrix(0.29, -0.03, -0.05, -0.49, -540.7, -914.58)" xlink:href="#f"/><linearGradient id="h" x1="203.31" y1="-814.66" x2="203.31" y2="-778.73" gradientTransform="matrix(1.02, 0, 0, -1.54, -109.82, -1101.68)" xlink:href="#b"/><linearGradient id="i" x1="277.72" y1="-654.9" x2="278.33" y2="-629.37" gradientTransform="matrix(0.9, -0.07, -0.16, -2, -286.36, -1140.45)" xlink:href="#b"/><linearGradient id="j" x1="-107.39" y1="-1053.41" x2="-107.24" y2="-1084.42" gradientTransform="matrix(1.4, 0, 0, -1.14, 243.99, -1111.27)" xlink:href="#c"/><linearGradient id="k" x1="-57.3" y1="-1144.86" x2="-57.1" y2="-1159.05" gradientTransform="matrix(1.28, 0, 0, -0.99, 167.76, -1066.89)" xlink:href="#f"/><linearGradient id="l" x1="639.03" y1="-520.24" x2="639.03" y2="-543.84" gradientTransform="matrix(0.71, 0, 0, -2.19, -400.11, -1061.39)" xlink:href="#f"/><linearGradient id="m" x1="755.93" y1="-518.92" x2="755.93" y2="-540.27" gradientTransform="matrix(0.72, 0, 0, -2.18, -398.95, -1061.61)" xlink:href="#f"/><linearGradient id="n" x1="-59.66" y1="-1027.04" x2="-65.99" y2="-1048.45" gradientTransform="matrix(1.26, 0, 0, -1.24, 129.31, -1119.38)" gradientUnits="userSpaceOnUse"><stop offset="0" stop-color="#ffa63f"/><stop offset="1" stop-color="#ff0"/></linearGradient><linearGradient id="o" x1="524.8" y1="-988.24" x2="497.63" y2="-916.51" gradientTransform="matrix(0.64, 0.29, 0.22, -0.58, 26.9, -575.87)" xlink:href="#b"/><linearGradient id="p" x1="-1046.22" y1="-1168.74" x2="-1050.21" y2="-1197.42" gradientTransform="matrix(-1.18, 0.43, -0.47, -1.15, -1653.05, -759.21)" xlink:href="#n"/><linearGradient id="q" x1="-1107.64" y1="-1267.61" x2="-1090.48" y2="-1298.93" gradientTransform="matrix(-0.95, 0.35, -0.42, -0.95, -1450.91, -700.14)" xlink:href="#f"/><linearGradient id="r" x1="135.22" y1="-1124.66" x2="137.21" y2="-1162.13" gradientTransform="matrix(1, -0.05, 0.02, -1.05, -63.95, -1042.22)" xlink:href="#f"/><linearGradient id="s" x1="1331.27" y1="-1371.54" x2="1345.84" y2="-1400.5" gradientTransform="matrix(0.37, 0.16, 0.12, -0.32, -196.22, -535.94)" xlink:href="#f"/><linearGradient id="t" x1="-187.06" y1="-1149.37" x2="-186.86" y2="-1169.43" gradientTransform="matrix(1.52, 0, 0, -1.03, 378.69, -1132.19)" xlink:href="#n"/><linearGradient id="u" x1="304.91" y1="-2031.85" x2="304.79" y2="-2054.16" gradientTransform="matrix(0.77, 0, 0, -0.49, -142.54, -945.7)" xlink:href="#f"/></defs><title>linux</title><path d="M172,167.36c0,11.4-34.49,20.64-77.05,20.64s-77.07-9.24-77.07-20.63h0c0-11.4,34.49-20.64,77.05-20.64S172,156,172,167.36h0Z" transform="translate(-17.87 -4.47)" style="fill:url(#a)"/><path d="M52.74,145.17C45.28,134.43,43.83,99.52,61.24,78c8.63-10.3,10.83-17.48,11.51-27.12C73.21,39.93,65,7.11,96,4.61c31.46-2.51,29.77,28.55,29.59,45-0.15,13.88,10.19,21.74,17.26,32.56,13.09,19.87,12,54.09-2.47,72.6-18.3,23.18-34,13.13-44.38,14C76.54,169.79,75.9,180.19,52.74,145.17Z" transform="translate(-17.87 -4.47)"/><path d="M128.74,84.18c5.4,5,19.46,27.36-2.77,41.29-7.84,4.85,7,23.43,14.11,14.43,12.56-16.15,4.55-41.88-3-51.1C132,82.26,124.15,79.73,128.74,84.18Z" transform="translate(-17.87 -4.47)" style="fill:url(#b)"/><path d="M127.21,81.13c8.91,7.2,25.12,32.53,1.47,49-7.77,5.13,6.88,21.31,15.11,13,28.61-28.77-.75-61.85-10.85-73.22C123.91,60,115.91,72.27,127.21,81.13Z" transform="translate(-17.87 -4.47)" style="stroke:#000;stroke-width:0.9772980213165283px"/><path d="M114.39,20.3c-0.32,8.25-9.39,15.44-20.28,16.05S74.67,30.77,75,22.52h0C75.3,14.27,84.38,7.08,95.26,6.47S114.71,12,114.39,20.29h0Z" transform="translate(-17.87 -4.47)" style="fill:url(#c)"/><path d="M88.33,39.92C88.64,45.29,86.07,49.8,82.6,50s-6.54-4-6.85-9.35h0c-0.31-5.36,2.26-9.87,5.73-10.08s6.54,4,6.85,9.35h0Z" transform="translate(-17.87 -4.47)" style="fill:url(#d)"/><path d="M94.64,40.33c0.13,6.21,4.14,11.13,9,11s8.63-5.27,8.5-11.47h0c-0.13-6.21-4.14-11.13-9-11s-8.63,5.27-8.5,11.47h0Z" transform="translate(-17.87 -4.47)" style="fill:url(#e)"/><path d="M98.63,41.74c-0.07,3.41,1.64,6.17,3.84,6.18s4-2.75,4.1-6.16h0c0.07-3.41-1.64-6.17-3.84-6.18s-4,2.75-4.1,6.16h0Z" transform="translate(-17.87 -4.47)"/><path d="M84.74,41.77C85,44.59,84,47,82.37,47.23S79.28,45.29,79,42.47h0c-0.28-2.82.78-5.26,2.37-5.45s3.09,1.94,3.36,4.76h0Z" transform="translate(-17.87 -4.47)"/><path d="M99.54,39.79c-0.19,1.9.7,3.52,2,3.62S104,42,104.18,40.14h0c0.19-1.9-.7-3.52-2-3.62s-2.47,1.36-2.65,3.26h0Z" transform="translate(-17.87 -4.47)" style="fill:url(#f)"/><path d="M83.4,40.28c0.17,1.59-.47,3-1.42,3.08s-1.85-1.09-2-2.69h0c-0.17-1.59.47-3,1.42-3.08s1.85,1.09,2,2.69h0Z" transform="translate(-17.87 -4.47)" style="fill:url(#g)"/><path d="M64.43,99.38C68.71,89.68,77.8,72.64,78,59.47c0-10.48,31.38-13,33.9-2.52s8.91,26.15,13,33.71,15.93,31.56,3.29,52.5c-11.38,18.54-45.9,33.21-64.32-2.52C57.65,128.25,58.76,112.88,64.43,99.38Z" transform="translate(-17.87 -4.47)" style="fill:url(#h)"/><path d="M60.57,92.18c-3.65,6.92-11.26,25.11,7.28,35.07,20,10.57,19.86,32.32-4.09,22-21.9-9.35-12.22-47.15-6.09-56.2C61.67,86.69,67.69,78.93,60.57,92.18Z" transform="translate(-17.87 -4.47)" style="fill:url(#i)"/><path d="M63.7,84.34c-5.82,9.5-19.79,31.93-1.1,43.56,25.18,15.45,18.05,30.9-4.93,17-32.36-19.42-3.94-58.52,9-73.43C81.53,54.74,69.57,74.49,63.7,84.34Z" transform="translate(-17.87 -4.47)" style="stroke:#000;stroke-width:1.25px"/><path d="M120.42,103.06c0,10.59-10.16,24.34-27.61,24.22-18,.15-25.67-13.63-25.67-24.22S79.08,83.88,93.78,83.88,120.42,92.47,120.42,103.06Z" transform="translate(-17.87 -4.47)" style="fill:url(#j)"/><path d="M110.93,69.74c-0.19,11-7.33,13.56-16.37,13.56S79,81.68,78.19,69.74c0-7.49,7.33-11.82,16.37-11.82S110.93,62.25,110.93,69.74Z" transform="translate(-17.87 -4.47)" style="fill:url(#k)"/><path d="M56.3,86.59c5.9-9,18.33-22.78,2.33,1.94-13,20.34-4.8,33.42-.58,37,12.17,10.85,11.65,18.11,2.13,12.4C39.64,125.73,43.9,105.19,56.3,86.59Z" transform="translate(-17.87 -4.47)" style="fill:url(#l)"/><path d="M141.73,90.27c-5.1-10.56-21.37-37.29.78-6.2,20.15,28.09,6,47.66,3.49,49.6s-11,5.81-8.52-1S152.54,113,141.73,90.27Z" transform="translate(-17.87 -4.47)" style="fill:url(#m)"/><path d="M51.84,173.38c-13.48-7.14-33.08,1.37-26-18,1.42-4.41-2.12-11,.19-15.3,2.71-5.23,8.52-4.07,12-7.56s5.62-9.88,12-8.91,10.65,8.82,15.11,18.4c3.29,6.88,15,16.55,14.21,24.25C78.52,178.08,65.08,180.31,51.84,173.38Z" transform="translate(-17.87 -4.47)" style="stroke:#e68c3f;stroke-width:6.25px;fill:url(#n)"/><path d="M150.07,127.87c-2.07,3.88-10.61,10-16.3,8.44s-8.42-10.36-7.28-17c1.06-7.49,7.28-7.86,15.09-4.17C150,119.22,152.52,122.73,150.07,127.87Z" transform="translate(-17.87 -4.47)" style="fill:url(#o)"/><path d="M145.36,170.06c9.88-12,31.83-9.53,17-26-3.13-3.52-2.2-11.16-6-14.39-4.52-4-9.52-.71-14.1-2.78s-9.4-6.53-15-3.46-6.21,11-6.74,21.49c-0.46,7.52-7.32,20.1-3.68,27C122.2,182.69,135.94,181.27,145.36,170.06Z" transform="translate(-17.87 -4.47)" style="stroke:#e68c3f;stroke-width:6.250679969787598px;fill:url(#p)"/><path d="M141.06,154c15.3-22.59,3.9-22.42.08-24.13s-7.89-5.38-12.4-2.88-4.76,9-4.89,17.6c-0.16,6.17-5.32,16.41-2.21,22.14C125.36,173.43,134.4,163.74,141.06,154Z" transform="translate(-17.87 -4.47)" style="fill:url(#q)"/><path d="M48.71,157.29C25.81,142.46,36.52,137.43,40,135.1c4.17-3,4.2-8.81,9.32-8.26s8.11,6.85,11.56,14.68c2.55,5.62,11.3,13,10.68,19.52C70.73,168.63,58.63,163.63,48.71,157.29Z" transform="translate(-17.87 -4.47)" style="fill:url(#r)"/><path d="M148.7,127.66c-1.78,3.11-9.14,8.05-14,6.76s-7.26-8.3-6.28-13.63c0.91-6,6.28-6.3,13-3.34C148.62,120.73,150.81,123.54,148.7,127.66Z" transform="translate(-17.87 -4.47)"/><path d="M143.77,125.92c-1.14,2.16-6,5.59-9.31,4.7s-5.05-5.77-4.5-9.47c0.49-4.17,4.09-4.37,8.68-2.32C143.58,121.11,145.1,123.06,143.77,125.92Z" transform="translate(-17.87 -4.47)" style="fill:url(#s)"/><path d="M81.51,47.35c2.38-2.26,8.27-9,19.32-1.92,2.05,1.34,3.72,1.46,7.67,3.15,7.91,3.25,4.13,11.08-4.25,13.7-3.59,1.16-6.84,5.52-13.37,5.14-5.58-.33-7-4-10.46-6-6.09-3.44-7-8.08-3.7-10.55S81.29,47.56,81.51,47.35Z" transform="translate(-17.87 -4.47)" style="stroke:#e68c3f;stroke-width:3.75px;fill:url(#t)"/><path d="M108.6,53.66c-3.29.19-10.46,7.36-18,7.36s-12-7-13.17-7" transform="translate(-17.87 -4.47)" style="fill:none;stroke:#e68c3f;stroke-width:2.5px"/><path d="M85.27,46.74a8,8,0,0,1,10-1C96.3,46.33,97.39,47,99,47.87c3.21,1.87,1.62,4.55-2.22,6.26C95,54.84,92.16,56.41,90,56.3c-2.43-.22-4-1.81-5.62-2.84-3-2-2.78-3.53-1.4-4.84C84,47.71,85.16,46.84,85.27,46.74Z" transform="translate(-17.87 -4.47)" style="fill:url(#u)"/></svg>