<svg xmlns="http://www.w3.org/2000/svg" viewBox="0 0 181.43 114.79"><title>suse</title><path d="M185.3,118.82a0.26,0.26,0,0,1-.26.26h-0.12a0.26,0.26,0,0,1-.26-0.26v-2.18h-1.23v2.18a0.27,0.27,0,0,1-.27.26h-0.11a0.26,0.26,0,0,1-.26-0.26v-2.18h-0.92a0.23,0.23,0,0,1-.24-0.24v-0.12a0.23,0.23,0,0,1,.24-0.23h3.22a0.28,0.28,0,0,1,.26.12l0.61,0.91,0.61-.91a0.3,0.3,0,0,1,.26-0.12h0.41v2.8a0.27,0.27,0,0,1-.27.26l0,0h-0.12a0.26,0.26,0,0,1-.26-0.26V117l-0.4.61a0.25,0.25,0,0,1-.2.09h0a0.26,0.26,0,0,1-.2-0.09L185.3,117v1.83h0Z" transform="translate(-5.8 -34.61)" style="fill:#73ba25"/><path d="M181,139.2v0.59a2.23,2.23,0,0,1-2.35,2.25H160.87a2.2,2.2,0,0,1-2.26-2.25V117.5a2.23,2.23,0,0,1,2.3-2.25v0h17a2.23,2.23,0,0,1,2.36,2.24v0.59a2.23,2.23,0,0,1-2.36,2.24H164.09v5.84h10.66a2.24,2.24,0,0,1,2.36,2.26V129a2.23,2.23,0,0,1-2.36,2.25H164.09V137h14.55A2.23,2.23,0,0,1,181,139.2Z" transform="translate(-5.8 -34.61)" style="fill:#73ba25"/><path d="M164.85,46.26a10.19,10.19,0,0,1,6.6,17.62,10.07,10.07,0,0,1-7.3,2.73,10.22,10.22,0,0,1-9.82-10.54A10.17,10.17,0,0,1,164.85,46.26ZM172,56.59a7.26,7.26,0,0,0-7-7.49,7.23,7.23,0,0,0-7.48,7,7.25,7.25,0,0,0,12.18,5.56A7.17,7.17,0,0,0,172,56.59Z" transform="translate(-5.8 -34.61)" style="fill:#fff"/><path d="M165,49.1a7.26,7.26,0,0,1,7,7.49,7.17,7.17,0,0,1-2.29,5,7.25,7.25,0,0,1-12.18-5.56A7.23,7.23,0,0,1,165,49.1Zm4.4,5.78c0-1.19-1.44-2.15-3.21-2.15s-3.21,1-3.21,2.15S164.44,57,166.21,57,169.43,56,169.43,54.87Z" transform="translate(-5.8 -34.61)" style="fill:#73ba25"/><path d="M166.21,52.73c1.77,0,3.21,1,3.21,2.15S168,57,166.21,57,163,56,163,54.87,164.44,52.73,166.21,52.73Z" transform="translate(-5.8 -34.61)" style="fill:#fff"/><path d="M153.93,131.74v3.57c0,4.09-2.44,6.73-6.24,6.73H133.17a2.23,2.23,0,0,1-2.35-2.25V139.2a2.23,2.23,0,0,1,2.35-2.24h13.77c1.5,0,1.54-2.05,1.54-2.28v-2.14a1.38,1.38,0,0,0-1.54-1.53H136.85a6.08,6.08,0,0,1-6-6.14v-3.31a6.76,6.76,0,0,1,6.84-6.31v0h11.85a2.27,2.27,0,0,1,2.4,2.24v0.59a2.25,2.25,0,0,1-2.35,2.25h-11c-1.45,0-2.27.71-2.27,2v2a2,2,0,0,0,2.17,1.91h9.93A5.24,5.24,0,0,1,153.93,131.74Z" transform="translate(-5.8 -34.61)" style="fill:#73ba25"/><path d="M123.77,115.25a2.33,2.33,0,0,1,2.35,2.36v17.55c0,4.08-3.21,7-7.63,7h-8.2c-4.43,0-7.63-3-7.63-7V117.61a2.34,2.34,0,0,1,2.35-2.36h0.75a2.35,2.35,0,0,1,2.36,2.36v16.9a2.43,2.43,0,0,0,2.43,2.44h7.68a2.44,2.44,0,0,0,2.43-2.44v-16.9a2.36,2.36,0,0,1,2.36-2.36h0.76Z" transform="translate(-5.8 -34.61)" style="fill:#73ba25"/><path d="M97.94,131.74v3.57c0,4.09-2.45,6.73-6.24,6.73H77.18a2.23,2.23,0,0,1-2.36-2.25V139.2A2.23,2.23,0,0,1,77.18,137H90.94c1.49,0,1.53-2.05,1.53-2.28v-2.14A1.37,1.37,0,0,0,90.94,131H80.86a6.07,6.07,0,0,1-6-6.14v-3.31a6.76,6.76,0,0,1,6.84-6.31v0H93.58a2.28,2.28,0,0,1,2.4,2.24v0.59a2.25,2.25,0,0,1-2.36,2.25h-11c-1.45,0-2.28.71-2.28,2v2a2,2,0,0,0,2.17,1.91h9.93A5.24,5.24,0,0,1,97.94,131.74Z" transform="translate(-5.8 -34.61)" style="fill:#73ba25"/><path d="M181.1,70.56l0.75-.14a0.78,0.78,0,0,1,.11.78,20.28,20.28,0,0,1-.69,2.5l-0.19.48a4,4,0,0,1-1,1.8c-1.39,1.26-3.61,2.27-7.08,3.79-5.38,2.35-14.09,3.83-22.18,3.78-2.9-.07-5.71-0.39-8.17-0.66-7.54-.86-13-1.48-14.12,5.38-1.43,8.59,6.65,19,6.73,19.11v0.29l-0.26.07s-12.88-5.93-13.19-6.11l-0.41-.29L121,101c-1-.93-2.92-3-6.88-7.62-7.68-8.87-16.66-10-23.58-8.36a12.34,12.34,0,0,0-5.23,3c-3.62,3.56-3.21,10.74-3,13.36a13.75,13.75,0,0,0,.46,3.42l0,0.3-0.26,0-0.15-.1L71.77,99.91l-0.4-1.72a30.39,30.39,0,0,0-1.18-4c-3.78-10-12.26-17.44-21.61-19.06-6.32-1.09-17.84-1.21-23.94,10.3A18.22,18.22,0,0,0,39,111.3c6,0.65,10.47-.73,13-4A10.92,10.92,0,0,0,53.2,95.88c-1.94-3.92-4.86-6-8.92-6.35-3.09-.28-5.38,1-6.21,2.32a4.34,4.34,0,0,0-.69,2.25v0a3.81,3.81,0,0,0,3.24,3.78,9.1,9.1,0,0,0,2.05-.29l0.52-.17,0.36-.12,0.26-.05a3.82,3.82,0,0,1,4.39,2.7,4,4,0,0,1,.15,1.05,3.81,3.81,0,0,1-1.71,3.16l0,0-0.12.07-0.18.11a6.34,6.34,0,0,1-1.63.72,13.39,13.39,0,0,1-4.26.74A11.68,11.68,0,0,1,29.28,94.27a12.5,12.5,0,0,1,5.84-10.61c4.32-2.86,11.8-3.83,18.73.42a19.9,19.9,0,0,1,8.53,22.42C59.14,116.61,50,122,38,120.93a29,29,0,0,1-21.12-12,29.73,29.73,0,0,1-4.47-9.66c-1.92-7.62,0-15.71,1.47-19.3,4.6-11.4,13.41-21.21,26.16-29.17l0.8-.5c27.11-16.66,46.3-16,60.35-15.5,16.57,0.58,34.23,6.29,36.67,7.1,0-.55.1-5.49,0.1-5.49l0.07-.17,0.19-.05c1.11,0.15,24.91,3.69,34.94,9.53A11.36,11.36,0,0,1,175.82,48c2.77,2.86,6.43,14.79,6.82,17.25l-0.15.25a8.94,8.94,0,0,0-.95.61c-2.34,1.64-7.81,5.46-14.82,4.84-6.3-.56-14.54-4.17-24.46-10.71L145.12,67l0.13,0.16c1.44,0.75,15.23,7.77,22.07,7.63C172.84,74.67,178.74,72,181.1,70.56ZM174.68,56.8a10.21,10.21,0,0,0-9.83-10.54,10.17,10.17,0,0,0-10.52,9.82,10.22,10.22,0,0,0,9.82,10.54A10.18,10.18,0,0,0,174.68,56.8Z" transform="translate(-5.8 -34.61)" style="fill:#73ba25"/><path d="M61.54,126.77a8.23,8.23,0,0,1,3.7-1h0.48c2.73,0,4.5,1.63,4.5,4.13v11a1.2,1.2,0,0,1-1.19,1.2H68.56a1.19,1.19,0,0,1-1.19-1.2V130.29a1.81,1.81,0,0,0-1.8-1.8h-4a1.8,1.8,0,0,0-1.8,1.8v10.58a1.2,1.2,0,0,1-1.19,1.2H58.16a1.19,1.19,0,0,1-1.19-1.2v-14a1,1,0,0,1,1-1h0.46a1,1,0,0,1,.93.56l0.33,0.6a0.36,0.36,0,0,0,.39.26A4.28,4.28,0,0,0,61.54,126.77Z" transform="translate(-5.8 -34.61)" style="fill:#73ba25"/><path d="M53.68,129.74V133a2,2,0,0,1-2.13,2.2h-8.3v2.44a1.7,1.7,0,0,0,2,1.83h4.6A1.12,1.12,0,0,1,51,140.57v0.37a1.13,1.13,0,0,1-1.19,1.13H44.2a4,4,0,0,1-3.83-4v-8.35a3.94,3.94,0,0,1,4-3.86h5.24A4,4,0,0,1,53.68,129.74Zm-2.88,3V130.1a1.58,1.58,0,0,0-1.6-1.61H44.83a1.59,1.59,0,0,0-1.6,1.61v2.59H50.8Z" transform="translate(-5.8 -34.61)" style="fill:#73ba25"/><path d="M25.92,137.64a1.8,1.8,0,0,0,.94,1.58l-0.67,1.48a0.42,0.42,0,0,0-.26.42v7.08a1.2,1.2,0,0,1-1.19,1.19H24.26a1.18,1.18,0,0,1-1.19-1.19V126.88a1,1,0,0,1,.93-1h0.53a1.09,1.09,0,0,1,.9.53l0.35,0.69a0.49,0.49,0,0,0,.4.2l0.66,1.43a1.78,1.78,0,0,0-.93,1.59v7.33h0Z" transform="translate(-5.8 -34.61)" style="fill:#73ba25"/><path d="M31.85,125.77c2.74,0,4.5,1.63,4.5,4.13V138c0,2.55-1.72,4.13-4.5,4.13H31.36a8.46,8.46,0,0,1-3.7-1,4.08,4.08,0,0,0-1.48-.49l0.67-1.48a1.8,1.8,0,0,0,.85.22h4a1.8,1.8,0,0,0,1.8-1.8V130.3a1.78,1.78,0,0,0-1.8-1.8h-4a1.88,1.88,0,0,0-.86.21l-0.66-1.43a3.89,3.89,0,0,0,1.46-.51,8.25,8.25,0,0,1,3.7-1h0.5Z" transform="translate(-5.8 -34.61)" style="fill:#73ba25"/><path d="M19,129.72v8.42a3.92,3.92,0,0,1-3.9,3.92H9.69a3.91,3.91,0,0,1-3.89-3.92v-8.42a3.94,3.94,0,0,1,4-3.86H15A4,4,0,0,1,19,129.72Zm-2.86,8.09v-7.67a1.66,1.66,0,0,0-1.64-1.64H10.28a1.64,1.64,0,0,0-1.64,1.64v7.67a1.6,1.6,0,0,0,1.6,1.64h4.27A1.64,1.64,0,0,0,16.16,137.8Z" transform="translate(-5.8 -34.61)" style="fill:#73ba25"/></svg>