<?xml version="1.0" encoding="utf-8"?>
<!-- Generator: Adobe Illustrator 17.0.2, SVG Export Plug-In . SVG Version: 6.00 Build 0)  -->
<!DOCTYPE svg PUBLIC "-//W3C//DTD SVG 1.1//EN" "http://www.w3.org/Graphics/SVG/1.1/DTD/svg11.dtd">
<svg version="1.1" id="Layer_1" xmlns="http://www.w3.org/2000/svg" xmlns:xlink="http://www.w3.org/1999/xlink" x="0px" y="0px"
	 width="1944px" height="1088.64px" viewBox="0 931.68 1944 1088.64" enable-background="new 0 931.68 1944 1088.64"
	 xml:space="preserve">
<g id="background" display="none">
	<rect y="931.68" display="inline" fill="#B0BEC5" width="1944" height="1088.64"/>
</g>
<g id="art">
	<circle cx="673.92" cy="1778.4" r="34.56"/>
	<circle cx="1477.44" cy="1709.28" r="34.56"/>
	<circle cx="1140.48" cy="1458.72" r="34.56"/>
	<circle cx="457.92" cy="1458.72" r="34.56"/>
	<circle cx="1088.64" cy="1173.6" r="34.56"/>
	<circle cx="786.24" cy="1510.56" r="34.56"/>
	<circle cx="1140.48" cy="1709.28" r="34.56"/>
	<circle cx="561.6" cy="1208.16" r="34.56"/>
	<path d="M671.328,1790.496l-222.912-330.912l107.136-260.064l553.824-36.288l-309.312,344.736l139.104,77.76l201.312-138.24
		l362.88,270.432h-365.472l-198.72-111.456L671.328,1790.496z M467.424,1457.856l208.224,308.448l247.104-169.344l-150.336-84.672
		l295.488-329.184L567.648,1216.8L467.424,1457.856z M1143.072,1700.64h308.448l-311.04-231.552l-184.896,126.144L1143.072,1700.64z
		"/>
</g>
</svg>
