<?xml version="1.0" encoding="utf-8"?>
<!-- Generator: Adobe Illustrator 17.0.2, SVG Export Plug-In . SVG Version: 6.00 Build 0)  -->
<!DOCTYPE svg PUBLIC "-//W3C//DTD SVG 1.1//EN" "http://www.w3.org/Graphics/SVG/1.1/DTD/svg11.dtd">
<svg version="1.1" id="Layer_1" xmlns="http://www.w3.org/2000/svg" xmlns:xlink="http://www.w3.org/1999/xlink" x="0px" y="0px"
	 width="1944px" height="1088.64px" viewBox="0 931.68 1944 1088.64" enable-background="new 0 931.68 1944 1088.64"
	 xml:space="preserve">
<g id="background" display="none">
	<rect y="931.68" display="inline" fill="#B0BEC5" width="1944" height="1088.64"/>
</g>
<g id="art">
	<circle cx="1373.76" cy="1501.92" r="34.56"/>
	<circle cx="1105.92" cy="1778.4" r="34.56"/>
	<circle cx="924.48" cy="1614.24" r="34.56"/>
	<circle cx="1226.88" cy="1337.76" r="34.56"/>
	<circle cx="777.6" cy="1320.48" r="34.56"/>
	<circle cx="457.92" cy="1173.6" r="34.56"/>
	<circle cx="1477.44" cy="1285.92" r="34.56"/>
	<circle cx="561.6" cy="1631.52" r="34.56"/>
	<path d="M1111.968,1784.448l-14.688-8.64l88.128-322.272l-391.392-119.232l138.24,275.616l-7.776,12.96l-362.88,17.28l-8.64-6.912
		l-103.68-457.92l9.504-10.368l1019.52,112.32l0.864,17.28l-245.376,50.976l-26.784,96.768l169.344,51.84l3.456,14.688
		L1111.968,1784.448z M1202.688,1458.72l-79.488,289.44l234.144-241.92L1202.688,1458.72z M469.152,1183.104l99.36,439.776
		l342.144-16.416l-140.832-282.528l10.368-12.096l410.4,125.28l27.648-101.952l6.912-6.048l196.992-40.608L469.152,1183.104z"/>
</g>
</svg>
