<?xml version="1.0" encoding="utf-8"?>
<!-- Generator: Adobe Illustrator 17.0.2, SVG Export Plug-In . SVG Version: 6.00 Build 0)  -->
<!DOCTYPE svg PUBLIC "-//W3C//DTD SVG 1.1//EN" "http://www.w3.org/Graphics/SVG/1.1/DTD/svg11.dtd">
<svg version="1.1" id="Layer_1" xmlns="http://www.w3.org/2000/svg" xmlns:xlink="http://www.w3.org/1999/xlink" x="0px" y="0px"
	 width="1944px" height="1088.64px" viewBox="0 931.68 1944 1088.64" enable-background="new 0 931.68 1944 1088.64"
	 xml:space="preserve">
<g id="background" display="none">
	<rect y="931.68" display="inline" fill="#B0BEC5" width="1944" height="1088.64"/>
</g>
<g id="art">
	<circle cx="1477.44" cy="1389.6" r="34.56"/>
	<circle cx="1477.44" cy="1709.28" r="34.56"/>
	<circle cx="665.28" cy="1778.4" r="34.56"/>
	<circle cx="1270.08" cy="1242.72" r="34.56"/>
	<circle cx="1088.64" cy="1173.6" r="34.56"/>
	<circle cx="457.92" cy="1614.24" r="34.56"/>
	<circle cx="1270.08" cy="1579.68" r="34.56"/>
	<circle cx="561.6" cy="1406.88" r="34.56"/>
	<path d="M618.624,1791.36l400.896-191.808l-591.84,25.056l380.16-266.112l-244.512,57.024l-5.184-16.416l527.04-233.28l8.64,14.688
		l-201.312,140.832l380.16-88.128l3.456,2.592l219.456,155.52l-390.528,187.488l168.48-6.912l2.592,1.728l228.96,143.424
		L618.624,1791.36z M1063.584,1596.96l-351.648,168.48l739.584-63.072l-184.032-114.048L1063.584,1596.96z M854.496,1348.128
		l-367.2,256.608l572.832-24.192l400.032-192.672l-191.808-136.512L854.496,1348.128z M1010.88,1217.664l-362.016,159.84
		l198.72-45.792L1010.88,1217.664z"/>
</g>
</svg>
