<svg xmlns="http://www.w3.org/2000/svg" xmlns:xlink="http://www.w3.org/1999/xlink" viewBox="0 0 155.1 195.53"><defs><linearGradient id="a" x1="-221.56" y1="456.62" x2="-223.29" y2="458.27" gradientTransform="matrix(126.56, 0, 0, -45.03, 28275.43, 20746.59)" gradientUnits="userSpaceOnUse"><stop offset="0" stop-color="#fff"/><stop offset="1" stop-color="#c2c1c1"/></linearGradient><linearGradient id="b" x1="-222.42" y1="471.07" x2="-223.83" y2="469.57" gradientTransform="translate(41503.76 -23777.01) scale(185.32 50.73)" gradientUnits="userSpaceOnUse"><stop offset="0" stop-color="#fff"/><stop offset="1" stop-color="#a2a2a1"/></linearGradient><linearGradient id="c" x1="-222.01" y1="471.57" x2="-223.74" y2="469.36" gradientTransform="translate(41512.86 -23247.01) scale(185.42 49.7)" gradientUnits="userSpaceOnUse"><stop offset="0" stop-color="#fff"/><stop offset="1" stop-color="#b3b3b3"/></linearGradient></defs><title>logo-vertical</title><path d="M39.19,201.47V186.13a18.55,18.55,0,0,0-.61-5.93A4.18,4.18,0,0,0,36.73,178a6.49,6.49,0,0,0-3.16-.69c-2.18,0-3.93,1.14-6.76,3.58,0,0.84,0,2,0,3.31v17.26h-5V186.13q0-4.56-.61-6A4.17,4.17,0,0,0,19.37,178a6.38,6.38,0,0,0-3.11-.68c-2.27,0-4,1.3-6.82,3.66v20.48h-5V173.42h3l1,3.51a14.08,14.08,0,0,1,9.28-3.62c3.67,0,6.35,1,7.64,4,3.46-3,6.55-4,9.67-4,6.58,0,9.15,3.44,9.15,10.33v17.84h-5Zm18.12-34.17H52.66v-4h4.64v4ZM57,201.2H52.23V173.26H57V201.2Zm8.17-1.39V195.5s5.51,1.66,8.63,1.66,7.63,0.33,7.63-4.64c0-7-17.91,2.32-17.58-11.61,0.16-6.66,6.63-7.58,10.68-7.58a53,53,0,0,1,10.68.92v4.6s-5.36-1.59-8.43-1.59-8.29.16-8.29,3.65,1.32,4,6.63,4,11.28,0.66,11.28,8c0,7-6,8-10.95,8.29C71.45,201.4,68.47,200.47,65.15,199.81Zm27.72-10.36,0-10.81,0-2.8v-7h3.29l1.33,4.33H104v4.12H97.49V194.5c0,2.32,3.56,2.65,6.19,2.65v4c-1.88.34-7,.35-8.67-1.64C92.9,197,92.87,194.44,92.87,189.45Zm34.25,11.7-6.63.05V173.39l6.63-.05v27.81Zm8.34-3.67q-3.64-3.68-3.64-10.23T135.5,177c2.45-2.46,5.85-3.69,10.19-3.85,4.37,0.16,7.78,1.39,10.21,3.85s3.65,5.88,3.65,10.26-1.22,7.77-3.65,10.23-5.84,3.68-10.21,3.82C141.3,201.16,137.89,199.93,135.46,197.48Zm3.91-10.64c0,6,2.07,8.08,6,8.08s6.28-2.08,6.28-8.08-3-7.42-6.28-7.42S139.37,180.72,139.37,186.84Zm-27.28,15a3.81,3.81,0,1,0-3.81-3.81A3.81,3.81,0,0,0,112.08,201.8Z" transform="translate(-4.45 -6.27)" style="fill:#010101"/><circle cx="77.55" cy="74.3" r="74.3" style="fill:#e9e9e9"/><path d="M104.29,127.65c-43.06-3.5-21.93-5.91-84-18.69,17.11,13.2,44.86,45.9,84,18.69h0Z" transform="translate(-4.45 -6.27)" style="fill:url(#a)"/><path d="M148.74,75.41c-40.94-8.08-81-36-123.06-27-0.61.21-1.33,0.32-1,.64C51.48,53.71,107.92,94,148.74,75.41Z" transform="translate(-4.45 -6.27)" style="fill:url(#b)"/><path d="M137.54,113.6C116,109,68.85,73.08,16,87.51,62.31,98.08,104,123.9,137.54,113.6Z" transform="translate(-4.45 -6.27)" style="fill:url(#c)"/><path d="M144.62,54.26C120.75,36.74,90.73,4.94,63.32,34.19,96.73,38.28,101.1,43.83,144.62,54.26Z" transform="translate(-4.45 -6.27)" style="fill:#a4a4a4"/><path d="M19.84,108.83C69.35,109,97.69,71.17,148.74,75.41,107.92,96.34,58,135.83,19.84,108.83Z" transform="translate(-4.45 -6.27)" style="fill:#121212"/><path d="M144.51,54.25C94.6,50.33,68.6,90.58,15.61,87.67,35.73,78.58,95,25.08,144.51,54.25Z" transform="translate(-4.45 -6.27)" style="fill:#171717"/><path d="M107.92,28C79.35,27,50.19,52.33,24.38,49,43,37.79,77.54,9.33,107.92,28Z" transform="translate(-4.45 -6.27)" style="fill:#212121"/><path d="M56.62,134.65c29.73-.07,54.57-26.24,81.54-21.05C116.15,126.17,89.27,152.25,56.62,134.65Z" transform="translate(-4.45 -6.27)" style="fill:#010101"/></svg>