<?xml version="1.0" encoding="UTF-8" standalone="no"?>
<svg width="155px" height="196px" viewBox="0 0 155 196" version="1.1" xmlns="http://www.w3.org/2000/svg" xmlns:xlink="http://www.w3.org/1999/xlink">
    <!-- Generator: Sketch 40.3 (33839) - http://www.bohemiancoding.com/sketch -->
    <title>Slice 1</title>
    <desc>Created with Sketch.</desc>
    <defs>
        <linearGradient x1="255.364762%" y1="260.39012%" x2="-5.28857143%" y2="5.93136058%" id="linearGradient-1">
            <stop stop-color="#FFFFFF" offset="0%"></stop>
            <stop stop-color="#C2C1C1" offset="100%"></stop>
        </linearGradient>
        <linearGradient x1="209.668365%" y1="219.188025%" x2="-0.815670968%" y2="-7.03918533%" id="linearGradient-2">
            <stop stop-color="#FFFFFF" offset="0%"></stop>
            <stop stop-color="#A2A2A1" offset="100%"></stop>
        </linearGradient>
        <linearGradient x1="272.968405%" y1="332.329477%" x2="9.04163238%" y2="-12.3339959%" id="linearGradient-3">
            <stop stop-color="#FFFFFF" offset="0%"></stop>
            <stop stop-color="#B3B3B3" offset="100%"></stop>
        </linearGradient>
    </defs>
    <g id="Page-1" stroke="none" stroke-width="1" fill="none" fill-rule="evenodd">
        <g id="logo-vertical-white">
            <path d="M34.9773528,179.812985 C34.9672891,176.796966 34.763795,174.948882 34.3633619,173.931402 C34.0239527,173.010013 33.3642176,172.236927 32.5012582,171.749364 C31.5166362,171.260391 30.4224309,171.024958 29.3205838,171.064998 C27.1263211,171.064998 25.3648717,172.19569 22.5163563,174.615768 L22.5163563,177.898743 L22.5163563,195.037657 L17.4836437,195.037657 L17.4836437,179.812985 C17.4836437,176.797806 17.27898,174.814135 16.8696527,173.861973 C16.5219922,172.969105 15.871071,172.222546 15.0276799,171.749364 C14.0588291,171.267514 12.9818538,171.035475 11.8973327,171.074916 C9.61248113,171.074916 7.87116256,172.364302 5.03271263,174.705033 L5.03271263,195.037657 L0,195.037657 L0,167.037659 L3.02778853,167.037659 L4.02617011,170.6881 C6.59174851,168.409738 9.91334588,167.132961 13.3668848,167.037659 C17.0608958,167.097657 19.7584298,168.089492 21.0568697,171.064998 C24.5395068,168.089492 27.6497232,167.097657 30.7901359,167.037659 C37.4131857,167.097657 40,170.50957 40,177.343315 L40,195.037657 L34.9672874,195.037657 L34.9773528,179.812985 Z M116,171.917659 L116,174.037659 L123,174.037659 L123,171.917659 L116,171.917659 Z M47,194.977659 L47,166.995056 L51.9999999,166.995056 L52,194.977659 L47,194.977659 Z M89.019082,162 L92.0203857,162 L93.6199998,166.851853 L99.9948922,166.846871 L100.014892,170.97982 L93.6199999,170.984802 L93.6199999,188.002136 C93.6199999,191.008057 97.384893,190.755551 100.014893,190.755551 L100.014893,194.849609 C99.1259104,195.013325 92.5251193,195.557308 90.1959876,192.551983 C89.3920801,191.514685 89,190.333779 89,188.002136 C89,185.670494 89,184.306946 89,183.02488 L89.019082,162 Z M59.0045049,189.21515 C59.0045049,189.21515 65.8445049,190.851317 68.9645049,190.851317 C72.0845049,190.851317 76.5845049,191.191317 76.5845049,186.191317 C76.5845049,179.191317 58.6745049,188.511317 59.0045049,174.581317 C59.1645049,167.921317 65.6345049,167.001317 69.6845049,167.001317 C73.2664484,166.946255 76.8447459,167.254498 80.3645049,167.921317 L80.3645049,172.521317 C80.3645049,172.521317 75.0045049,170.931317 71.9345049,170.931317 C68.8645049,170.931317 63.6545049,171.111317 63.6545049,174.591317 C63.6545049,178.071317 64.9745049,178.591317 70.2845049,178.591317 C75.5945049,178.591317 81.5645049,179.251317 81.5645049,186.591317 C81.5645049,193.591317 75.5645049,194.591317 70.6145049,194.881317 C66.6545049,195.091317 62.3245049,194.21515 59.0045049,193.52515 L59.0045049,189.21515 Z M123,195.036467 L116,195.036467 L116,167.036469 L123,167.036469 L123,195.036467 Z M127,181.010004 C127,176.653384 128.22,173.244578 130.66,170.783586 C133.11,168.329246 136.533645,167.037659 140.85,167.037659 C145.259903,167.037659 148.63,168.329246 151.06,170.783586 C153.49,173.237926 154.71,176.650058 154.71,181.019981 C154.71,185.389904 153.49,188.772105 151.06,191.226445 C148.63,193.680786 145.257645,195.037657 140.85,195.037657 C136.459731,195.037657 133.05,193.660832 130.62,191.216468 C128.213333,188.768779 127,185.366625 127,181.010004 Z M140.95,188.657659 C144.88,188.657659 147.23,186.577659 147.23,180.577659 C147.23,174.577659 144.23,173.157659 140.95,173.157659 C137.67,173.157659 134.93,174.457659 134.93,180.577659 C134.95,186.577659 137.02,188.657659 140.95,188.657659 Z M107.67,195.577659 C109.774205,195.577659 111.48,193.871864 111.48,191.767659 C111.48,189.663454 109.774205,187.957659 107.67,187.957659 C105.565795,187.957659 103.86,189.663454 103.86,191.767659 C103.881743,193.844591 105.593017,195.561418 107.67,195.577659 L107.67,195.577659 Z" id="Shape" fill="#171717"></path>
            <g id="logo-vertical" transform="translate(3.000000, 0.000000)">
                <circle id="Oval" fill="#E9E9E9" cx="74.55" cy="74.3" r="74.3"></circle>
                <path d="M96.84,121.38 C53.78,117.88 74.91,115.47 12.84,102.69 C29.95,115.89 57.7,148.59 96.84,121.38 L96.84,121.38 L96.84,121.38 Z" id="Shape" fill="url(#linearGradient-1)"></path>
                <path d="M141.29,69.14 C100.35,61.06 60.29,33.14 18.23,42.14 C17.62,42.35 16.9,42.46 17.23,42.78 C44.03,47.44 100.47,87.73 141.29,69.14 L141.29,69.14 Z" id="Shape" fill="url(#linearGradient-2)"></path>
                <path d="M130.09,107.33 C108.55,102.73 61.4,66.81 8.55,81.24 C54.86,91.81 96.55,117.63 130.09,107.33 L130.09,107.33 Z" id="Shape" fill="url(#linearGradient-3)"></path>
                <path d="M137.17,47.99 C113.3,30.47 83.28,-1.33 55.87,27.92 C89.28,32.01 93.65,37.56 137.17,47.99 L137.17,47.99 Z" id="Shape" fill="#A4A4A4"></path>
                <path d="M12.39,102.56 C61.9,102.73 90.24,64.9 141.29,69.14 C100.47,90.07 50.55,129.56 12.39,102.56 L12.39,102.56 Z" id="Shape" fill="#121212"></path>
                <path d="M137.06,47.98 C87.15,44.06 61.15,84.31 8.16,81.4 C28.28,72.31 87.55,18.81 137.06,47.98 L137.06,47.98 Z" id="Shape" fill="#171717"></path>
                <path d="M100.47,21.73 C71.9,20.73 42.74,46.06 16.93,42.73 C35.55,31.52 70.09,3.06 100.47,21.73 L100.47,21.73 Z" id="Shape" fill="#212121"></path>
                <path d="M49.17,128.38 C78.9,128.31 103.74,102.14 130.71,107.33 C108.7,119.9 81.82,145.98 49.17,128.38 L49.17,128.38 Z" id="Shape" fill="#010101"></path>
            </g>
        </g>
    </g>
</svg>