<svg xmlns="http://www.w3.org/2000/svg" viewBox="0 0 184.47 145.19"><title>aws</title><path d="M57.82,112.56l-16.9,7.26,15.65,6.69,18.15-6.69Zm-25.41,9.07L31.85,154.3l24.73,10.89V131.27Zm50.81,0-22.34,8.51v32L83.23,153V121.63Z" transform="translate(-4 -20)" style="fill:#f7a80d"/><path d="M109.88,20l-17,7.26L108.64,34l18.15-6.69ZM86.29,29.64V62.31l21.1,6.13,0.68-29.72Zm47.19,1.81-20,8.51v32.1l20-9.07V31.46Z" transform="translate(-4 -20)" style="fill:#f7a80d"/><path d="M30,66l-16.9,7.26,15.65,6.69,18.15-6.69ZM4.57,75.05L4,107.72l24.73,10.89V84.69Zm50.81,0L33,83.56v32l22.34-9.07V75.05Z" transform="translate(-4 -20)" style="fill:#f7a80d"/><path d="M84.42,64.77L67.52,72l15.65,6.69L101.32,72ZM59,73.84l-0.57,32.67L83.17,117.4V83.49Zm50.81,0L87.48,82.35v32l22.34-9.07V73.84Z" transform="translate(-4 -20)" style="fill:#f7a80d"/><path d="M163.06,20l-16.9,7.26L161.81,34,180,27.26Zm-25.41,9.07-0.57,32.67,24.73,10.89V38.72Zm50.81,0-22.34,8.51v32l22.34-9.07V29.07Z" transform="translate(-4 -20)" style="fill:#f7a80d"/></svg>