<svg xmlns="http://www.w3.org/2000/svg" xmlns:xlink="http://www.w3.org/1999/xlink" viewBox="0 0 82.31 183.63"><defs><clipPath id="a" transform="translate(-60 -4.37)"><path d="M105.36,188l-4.93-1.63s0.63-24.93-8.36-26.67c-5.93-6.87.91-293.42,22.45-1,0,0-7.37,3.7-8.77,10S105.36,188,105.36,188Z" style="fill:none"/></clipPath><linearGradient id="b" x1="-934.62" y1="46.05" x2="-933.3" y2="46.05" gradientTransform="matrix(43.05, 14.52, 13.1, -38.63, 39703.94, 15451.7)" gradientUnits="userSpaceOnUse"><stop offset="0" stop-color="#929669"/><stop offset="0.23" stop-color="#929669"/><stop offset="1" stop-color="#fdfcf1"/></linearGradient><clipPath id="c" transform="translate(-60 -4.37)"><path d="M108,163.93s42.8-28.19,32.77-86.73c-9.66-42.53-32.45-56.51-34.9-61.85a64.22,64.22,0,0,1-5.41-10.47l1.82,118.5s-3.77,36.18,5.72,40.55h0Z" style="fill:none"/></clipPath><linearGradient id="d" x1="-953.7" y1="66.96" x2="-952.39" y2="66.96" gradientTransform="matrix(30.15, 117.03, 125.92, -20.19, 20411.96, 112966.08)" gradientUnits="userSpaceOnUse"><stop offset="0" stop-color="#45aa3a"/><stop offset="1" stop-color="#3d9439"/></linearGradient><clipPath id="e" transform="translate(-60 -4.37)"><path d="M97.93,165.5S57.79,138.12,60.1,89.79,90.76,17.71,96.28,13.4c3.57-3.81,3.72-5.27,4-9,2.5,5.38,2.09,80.29,2.35,89C103.66,127.51,100.74,159.07,97.93,165.5Z" style="fill:none"/></clipPath><linearGradient id="f" x1="-950.83" y1="37.96" x2="-949.51" y2="37.96" gradientTransform="matrix(52.76, -11.99, -16.49, -49.26, 50849.27, -9433.65)" gradientUnits="userSpaceOnUse"><stop offset="0" stop-color="#41a83b"/><stop offset="1" stop-color="#5ebc44"/></linearGradient></defs><title>mongo</title><g style="clip-path:url(#a)"><path d="M105.36,188l-4.93-1.63s0.63-24.93-8.36-26.67c-5.93-6.87.91-293.42,22.45-1,0,0-7.37,3.7-8.77,10s-0.4,19.3-.4,19.3" transform="translate(-60 -4.37)" style="fill:url(#b)"/></g><g style="clip-path:url(#c)"><path d="M108,163.93s42.8-28.19,32.77-86.73c-9.66-42.53-32.45-56.51-34.9-61.85a64.22,64.22,0,0,1-5.41-10.47l1.82,118.5s-3.77,36.18,5.72,40.55" transform="translate(-60 -4.37)" style="fill:url(#d)"/></g><g style="clip-path:url(#e)"><path d="M97.93,165.5S57.79,138.12,60.1,89.79,90.76,17.71,96.28,13.4c3.57-3.81,3.72-5.27,4-9,2.5,5.38,2.09,80.29,2.35,89,1,34.09-1.89,65.65-4.7,72.08" transform="translate(-60 -4.37)" style="fill:url(#f)"/></g></svg>