<svg xmlns="http://www.w3.org/2000/svg" viewBox="0 0 183.46 183.46"><title>ICON-192-template</title><circle cx="91.73" cy="91.73" r="91.73" style="fill:#dd4814"/><circle cx="29.35" cy="91.73" r="12.25" style="fill:#fff"/><path d="M66.82,140.53a53.29,53.29,0,0,1-22-30.93,17.2,17.2,0,0,0,0-26.67A53.29,53.29,0,0,1,66.82,52l9,15a35.76,35.76,0,0,0,0,58.54Z" transform="translate(-4.6 -4.54)" style="fill:#fff"/><circle cx="127.52" cy="42.25" r="12.25" transform="translate(22.57 127.03) rotate(-60)" style="fill:#fff"/><path d="M72.76,48.57A53.29,53.29,0,0,1,110.54,45a17.2,17.2,0,0,0,23.1,13.34,53.29,53.29,0,0,1,15.78,34.52L132,93.09A35.76,35.76,0,0,0,81.27,63.83Z" transform="translate(-4.6 -4.54)" style="fill:#fff"/><circle cx="127.52" cy="150.29" r="12.25" transform="translate(-62.66 79.36) rotate(-30)" style="fill:#fff"/><path d="M149.43,99.7a53.29,53.29,0,0,1-15.78,34.52,17.2,17.2,0,0,0-23.1,13.34A53.29,53.29,0,0,1,72.76,144l8.51-15.25A35.76,35.76,0,0,0,132,99.44Z" transform="translate(-4.6 -4.54)" style="fill:#fff"/></svg>