<svg xmlns="http://www.w3.org/2000/svg" xmlns:xlink="http://www.w3.org/1999/xlink" viewBox="0 0 332.88 148.59"><defs><linearGradient id="a" x1="-133.31" y1="468.41" x2="-135.04" y2="470.06" gradientTransform="matrix(126.56, 0, 0, -45.03, 17100.22, 21275.98)" gradientUnits="userSpaceOnUse"><stop offset="0" stop-color="#fff"/><stop offset="1" stop-color="#c2c1c1"/></linearGradient><linearGradient id="b" x1="-133.93" y1="482.31" x2="-135.34" y2="480.81" gradientTransform="translate(25099.46 -24348.94) scale(185.32 50.73)" gradientUnits="userSpaceOnUse"><stop offset="0" stop-color="#fff"/><stop offset="1" stop-color="#a2a2a1"/></linearGradient><linearGradient id="c" x1="-133.52" y1="482.8" x2="-135.25" y2="480.6" gradientTransform="translate(25099.15 -23807.08) scale(185.42 49.7)" gradientUnits="userSpaceOnUse"><stop offset="0" stop-color="#fff"/><stop offset="1" stop-color="#b3b3b3"/></linearGradient></defs><title>logo-regular</title><path d="M214.72,94V78.63a18.55,18.55,0,0,0-.61-5.93,4.18,4.18,0,0,0-1.86-2.18,6.49,6.49,0,0,0-3.16-.69c-2.18,0-3.93,1.14-6.76,3.58,0,0.84,0,2,0,3.31V94h-5V78.63q0-4.56-.61-6a4.17,4.17,0,0,0-1.84-2.12,6.38,6.38,0,0,0-3.11-.68c-2.27,0-4,1.3-6.82,3.66V94h-5V65.92h3l1,3.51a14.08,14.08,0,0,1,9.28-3.62c3.67,0,6.35,1,7.64,4,3.46-3,6.55-4,9.67-4,6.58,0,9.15,3.44,9.15,10.33V94h-5Zm18.12-34.17h-4.64v-4h4.64v4ZM232.51,93.7h-4.75V65.76h4.75V93.7Zm8.17-1.39V88s5.51,1.66,8.63,1.66S256.93,90,256.93,85c0-7-17.91,2.32-17.58-11.61,0.16-6.66,6.63-7.58,10.68-7.58a53,53,0,0,1,10.68.92v4.6s-5.36-1.59-8.43-1.59S244,69.92,244,73.4s1.32,4,6.63,4,11.28,0.66,11.28,8c0,7-6,8-10.95,8.29C247,93.9,244,93,240.68,92.31ZM268.4,82l0-10.81,0-2.8v-7h3.29L273,65.69h6.47v4.12H273V87c0,2.32,3.56,2.65,6.19,2.65v4c-1.88.34-7,.35-8.67-1.64C268.43,89.45,268.4,86.94,268.4,82Zm34.25,11.7L296,93.7V65.89l6.63-.05V93.65ZM311,90q-3.64-3.68-3.64-10.23T311,69.49c2.45-2.46,5.85-3.69,10.19-3.85,4.37,0.16,7.78,1.39,10.21,3.85s3.65,5.88,3.65,10.26-1.22,7.77-3.65,10.23-5.84,3.68-10.21,3.82C316.82,93.66,313.42,92.43,311,90Zm3.91-10.64c0,6,2.07,8.08,6,8.08s6.28-2.08,6.28-8.08-3-7.42-6.28-7.42S314.9,73.22,314.9,79.34Zm-27.28,15a3.81,3.81,0,1,0-3.81-3.81A3.81,3.81,0,0,0,287.61,94.3Z" transform="translate(-2.2 -4.77)" style="fill:#010101"/><circle cx="74.3" cy="74.3" r="74.3" style="fill:#e9e9e9"/><path d="M98.78,126.15c-43.06-3.5-21.93-5.91-84-18.69,17.11,13.2,44.86,45.9,84,18.69h0Z" transform="translate(-2.2 -4.77)" style="fill:url(#a)"/><path d="M143.23,73.91c-40.94-8.08-81-36-123.06-27-0.61.21-1.33,0.32-1,.64C46,52.21,102.42,92.46,143.23,73.91Z" transform="translate(-2.2 -4.77)" style="fill:url(#b)"/><path d="M132,112.1C110.48,107.46,63.35,71.58,10.53,86,56.8,96.58,98.47,122.4,132,112.1Z" transform="translate(-2.2 -4.77)" style="fill:url(#c)"/><path d="M139.12,52.76C115.25,35.24,85.23,3.44,57.81,32.69,91.23,36.78,95.6,42.33,139.12,52.76Z" transform="translate(-2.2 -4.77)" style="fill:#a4a4a4"/><path d="M14.34,107.33c49.52,0.13,77.85-37.66,128.9-33.42C102.42,94.84,52.48,134.33,14.34,107.33Z" transform="translate(-2.2 -4.77)" style="fill:#121212"/><path d="M139,52.75C89.1,48.83,63.1,89.08,10.11,86.17,30.23,77.08,89.48,23.58,139,52.75Z" transform="translate(-2.2 -4.77)" style="fill:#171717"/><path d="M102.42,26.46c-28.57-1-57.73,24.37-83.54,21.06C37.48,36.29,72,7.83,102.42,26.46Z" transform="translate(-2.2 -4.77)" style="fill:#212121"/><path d="M51.12,133.15c29.73-.07,54.57-26.24,81.54-21.05C110.65,124.67,83.77,150.75,51.12,133.15Z" transform="translate(-2.2 -4.77)" style="fill:#010101"/></svg>