<?xml version="1.0" encoding="UTF-8" standalone="no"?>
<svg width="155px" height="34px" viewBox="0 0 155 34" version="1.1" xmlns="http://www.w3.org/2000/svg" xmlns:xlink="http://www.w3.org/1999/xlink">
    <!-- Generator: Sketch 3.7.2 (28276) - http://www.bohemiancoding.com/sketch -->
    <title>Slice 1</title>
    <desc>Created with Sketch.</desc>
    <defs></defs>
    <g id="Page-1" stroke="none" stroke-width="1" fill="none" fill-rule="evenodd">
        <path d="M34.9773528,17.8129849 C34.9672891,14.7969659 34.763795,12.948882 34.3633619,11.9314018 C34.0239527,11.0100135 33.3642176,10.2369272 32.5012582,9.74936419 C31.5166362,9.26039131 30.4224309,9.02495782 29.3205838,9.06499785 C27.1263211,9.06499785 25.3648717,10.1956901 22.5163563,12.6157681 L22.5163563,15.8987428 L22.5163563,33.0376568 L17.4836437,33.0376568 L17.4836437,17.8129849 C17.4836437,14.7978057 17.27898,12.8141352 16.8696527,11.8619733 C16.5219922,10.9691054 15.871071,10.222546 15.0276799,9.74936419 C14.0588291,9.2675141 12.9818538,9.03547471 11.8973327,9.0749162 C9.61248113,9.0749162 7.87116256,10.3643021 5.03271263,12.7050333 L5.03271263,33.0376568 L0,33.0376568 L0,5.03765869 L3.02778853,5.03765869 L4.02617011,8.68810045 C6.59174851,6.40973816 9.91334588,5.13296131 13.3668848,5.03765869 C17.0608958,5.09765678 19.7584298,6.08949205 21.0568697,9.06499785 C24.5395068,6.08949205 27.6497232,5.09765678 30.7901359,5.03765869 C37.4131857,5.09765678 40,8.5095701 40,15.3433151 L40,33.0376568 L34.9672874,33.0376568 L34.9773528,17.8129849 Z M116,9.91765869 L116,12.0376587 L123,12.0376587 L123,9.91765869 L116,9.91765869 Z M47,32.9776587 L47,4.99505615 L51.9999999,4.99505615 L52,32.9776587 L47,32.9776587 Z M89.019082,0 L92.0203857,0 L93.6199998,4.85185272 L99.9948922,4.84687073 L100.014892,8.97982025 L93.6199999,8.98480225 L93.6199999,26.0021362 C93.6199999,29.0080566 97.384893,28.7555513 100.014893,28.7555513 L100.014893,32.8496094 C99.1259104,33.0133254 92.5251193,33.5573082 90.1959876,30.5519829 C89.3920801,29.514685 89,28.3337787 89,26.0021362 C89,23.6704938 89,22.3069456 89,21.0248798 L89.019082,0 Z M59.0045049,27.2151503 C59.0045049,27.2151503 65.8445049,28.851317 68.9645049,28.851317 C72.0845049,28.851317 76.5845049,29.191317 76.5845049,24.191317 C76.5845049,17.191317 58.6745049,26.511317 59.0045049,12.581317 C59.1645049,5.92131701 65.6345049,5.00131701 69.6845049,5.00131701 C73.2664484,4.94625524 76.8447459,5.25449809 80.3645049,5.92131701 L80.3645049,10.521317 C80.3645049,10.521317 75.0045049,8.93131701 71.9345049,8.93131701 C68.8645049,8.93131701 63.6545049,9.11131701 63.6545049,12.591317 C63.6545049,16.071317 64.9745049,16.591317 70.2845049,16.591317 C75.5945049,16.591317 81.5645049,17.251317 81.5645049,24.591317 C81.5645049,31.591317 75.5645049,32.591317 70.6145049,32.881317 C66.6545049,33.091317 62.3245049,32.2151503 59.0045049,31.5251503 L59.0045049,27.2151503 Z M123,33.0364673 L116,33.0364673 L116,5.03646919 L123,5.03646919 L123,33.0364673 Z M127,19.0100042 C127,14.6533838 128.22,11.2445778 130.66,8.7835861 C133.11,6.32924575 136.533645,5.03765869 140.85,5.03765869 C145.259903,5.03765869 148.63,6.32924575 151.06,8.7835861 C153.49,11.2379265 154.71,14.6500582 154.71,19.0199812 C154.71,23.3899043 153.49,26.772105 151.06,29.2264453 C148.63,31.6807857 145.257645,33.0376566 140.85,33.0376568 C136.459731,33.0376566 133.05,31.6608317 130.62,29.2164684 C128.213333,26.7687793 127,23.3666246 127,19.0100042 Z M140.95,26.6576587 C144.88,26.6576587 147.23,24.5776587 147.23,18.5776587 C147.23,12.5776587 144.23,11.1576587 140.95,11.1576587 C137.67,11.1576587 134.93,12.4576587 134.93,18.5776587 C134.95,24.5776587 137.02,26.6576587 140.95,26.6576587 Z M107.67,33.5776587 C109.774205,33.5776587 111.48,31.8718636 111.48,29.7676587 C111.48,27.6634538 109.774205,25.9576587 107.67,25.9576587 C105.565795,25.9576587 103.86,27.6634538 103.86,29.7676587 C103.881743,31.8445909 105.593017,33.5614177 107.67,33.5776586 L107.67,33.5776587 Z" id="Shape" fill="#FFFFFF"></path>
    </g>
</svg>