<svg xmlns="http://www.w3.org/2000/svg" xmlns:xlink="http://www.w3.org/1999/xlink" viewBox="0 0 148.59 148.59"><defs><linearGradient id="a" x1="-133.31" y1="468.41" x2="-135.04" y2="470.06" gradientTransform="matrix(126.56, 0, 0, -45.03, 17100.22, 21275.98)" gradientUnits="userSpaceOnUse"><stop offset="0" stop-color="#fff"/><stop offset="1" stop-color="#c2c1c1"/></linearGradient><linearGradient id="b" x1="-133.93" y1="482.31" x2="-135.34" y2="480.81" gradientTransform="translate(25099.46 -24348.94) scale(185.32 50.73)" gradientUnits="userSpaceOnUse"><stop offset="0" stop-color="#fff"/><stop offset="1" stop-color="#a2a2a1"/></linearGradient><linearGradient id="c" x1="-133.52" y1="482.8" x2="-135.25" y2="480.6" gradientTransform="translate(25099.15 -23807.08) scale(185.42 49.7)" gradientUnits="userSpaceOnUse"><stop offset="0" stop-color="#fff"/><stop offset="1" stop-color="#b3b3b3"/></linearGradient></defs><title>logo-solo</title><circle cx="74.3" cy="74.3" r="74.3" style="fill:#e9e9e9"/><path d="M98.78,126.15c-43.06-3.5-21.93-5.91-84-18.69,17.11,13.2,44.86,45.9,84,18.69h0Z" transform="translate(-2.2 -4.77)" style="fill:url(#a)"/><path d="M143.23,73.91c-40.94-8.08-81-36-123.06-27-0.61.21-1.33,0.32-1,.64C46,52.21,102.42,92.46,143.23,73.91Z" transform="translate(-2.2 -4.77)" style="fill:url(#b)"/><path d="M132,112.1C110.48,107.46,63.35,71.58,10.53,86,56.8,96.58,98.47,122.4,132,112.1Z" transform="translate(-2.2 -4.77)" style="fill:url(#c)"/><path d="M139.12,52.76C115.25,35.24,85.23,3.44,57.81,32.69,91.23,36.78,95.6,42.33,139.12,52.76Z" transform="translate(-2.2 -4.77)" style="fill:#a4a4a4"/><path d="M14.34,107.33c49.52,0.13,77.85-37.66,128.9-33.42C102.42,94.84,52.48,134.33,14.34,107.33Z" transform="translate(-2.2 -4.77)" style="fill:#121212"/><path d="M139,52.75C89.1,48.83,63.1,89.08,10.11,86.17,30.23,77.08,89.48,23.58,139,52.75Z" transform="translate(-2.2 -4.77)" style="fill:#171717"/><path d="M102.42,26.46c-28.57-1-57.73,24.37-83.54,21.06C37.48,36.29,72,7.83,102.42,26.46Z" transform="translate(-2.2 -4.77)" style="fill:#212121"/><path d="M51.12,133.15c29.73-.07,54.57-26.24,81.54-21.05C110.65,124.67,83.77,150.75,51.12,133.15Z" transform="translate(-2.2 -4.77)" style="fill:#010101"/></svg>