<?xml version="1.0" encoding="UTF-8" standalone="no"?>
<svg width="74px" height="53px" viewBox="0 0 74 53" version="1.1" xmlns="http://www.w3.org/2000/svg" xmlns:xlink="http://www.w3.org/1999/xlink">
    <!-- Generator: Sketch 43.2 (39069) - http://www.bohemiancoding.com/sketch -->
    <title>Slice 1</title>
    <desc>Created with Sketch.</desc>
    <defs></defs>
    <g id="Page-1" stroke="none" stroke-width="1" fill="none" fill-rule="evenodd">
        <g id="Clear-glass" fill-rule="nonzero">
            <path d="M0.0407692308,0 C0.489230769,0.183461538 0.876538462,0.346538462 1.28423077,0.53 C1.87538462,0.795 2.46653846,1.03961538 3.07807692,1.30461538 C3.91384615,1.67153846 4.77,2.03846154 5.60576923,2.385 C6.23769231,2.65 6.89,2.93538462 7.52192308,3.20038462 C8.43923077,3.58769231 9.35653846,3.99538462 10.2534615,4.38269231 C10.9669231,4.68846154 11.6803846,4.99423077 12.3734615,5.3 C13.2703846,5.68730769 14.1673077,6.07461538 15.0642308,6.46192308 C15.8592308,6.80846154 16.6542308,7.13461538 17.4492308,7.48115385 C18.3665385,7.86846154 19.2838462,8.27615385 20.1807692,8.66346154 C21.1592308,9.09153846 22.1580769,9.49923077 23.1365385,9.92730769 C24.115,10.335 25.0730769,10.7630769 26.0515385,11.1911538 C26.1126923,11.2115385 26.1738462,11.3134615 26.1738462,11.3542308 C26.1942308,12.3530769 26.1942308,13.3519231 26.1942308,14.3507692 C26.1942308,14.4526923 26.1534615,14.4934615 26.0515385,14.4934615 L23.7888462,14.4934615 C23.6461538,14.4934615 23.6461538,14.4119231 23.6461538,14.31 L23.6461538,12.1084615 C23.6461538,11.9861538 23.6257692,11.925 23.5034615,11.8842308 C22.79,11.6192308 22.0561538,11.3338462 21.3426923,11.0484615 C20.4865385,10.7223077 19.6303846,10.3961538 18.7742308,10.0496154 C17.6326923,9.60115385 16.4707692,9.17307692 15.3292308,8.72461538 C14.3507692,8.33730769 13.3723077,7.97038462 12.3938462,7.58307692 C11.5988462,7.27730769 10.8038462,6.97153846 9.98846154,6.66576923 C8.70423077,6.17653846 7.42,5.66692308 6.13576923,5.17769231 C4.93307692,4.70884615 3.73038462,4.26038462 2.52769231,3.79153846 C2.50730769,3.79153846 2.46653846,3.77115385 2.42576923,3.77115385 L2.42576923,49.2696154 C2.58884615,49.2084615 2.73153846,49.1676923 2.89461538,49.1269231 C3.89346154,48.7803846 4.89230769,48.4542308 5.89115385,48.1076923 C6.52307692,47.8834615 7.155,47.6796154 7.80730769,47.4757692 C8.48,47.2515385 9.17307692,47.0069231 9.84576923,46.7623077 C10.865,46.4157692 11.9046154,46.0692308 12.9238462,45.7226923 C13.8615385,45.4169231 14.7788462,45.0907692 15.7165385,44.785 C16.695,44.4588462 17.6734615,44.1123077 18.6723077,43.7861538 C19.7730769,43.4192308 20.8738462,43.0523077 21.9746154,42.665 C22.5046154,42.4815385 23.0142308,42.2980769 23.5442308,42.135 C23.6665385,42.0942308 23.6461538,42.0126923 23.6461538,41.9311538 L23.6461538,38.9753846 C23.6461538,38.7511538 23.6461538,38.7511538 23.8703846,38.7511538 L26.0107692,38.7511538 C26.1534615,38.7511538 26.2146154,38.7919231 26.2146154,38.955 L26.2146154,42.2980769 C26.2146154,42.4815385 26.1942308,42.6446154 26.1942308,42.8280769 C26.1942308,42.93 26.1534615,42.9911538 26.0515385,43.0319231 C25.3788462,43.2969231 24.6857692,43.5415385 24.0130769,43.8065385 C23.4015385,44.0511538 22.7696154,44.2753846 22.1580769,44.52 C21.3223077,44.8461538 20.4865385,45.1519231 19.6507692,45.4780769 C18.8965385,45.7634615 18.1423077,46.0692308 17.3880769,46.3546154 C15.9815385,46.8846154 14.575,47.435 13.1684615,47.965 C12.2511538,48.3115385 11.3542308,48.6784615 10.4573077,49.025 C9.78461538,49.29 9.09153846,49.5346154 8.41884615,49.7996154 C7.09384615,50.3092308 5.76884615,50.8188462 4.42346154,51.3284615 C3.22076923,51.7973077 1.99769231,52.2457692 0.795,52.7146154 C0.591153846,52.7961538 0.387307692,52.8776923 0.183461538,52.9592308 C0.0815384615,53 0.0203846154,52.9796154 0.0203846154,52.8573077 L0.0203846154,52.7146154 L0.0203846154,0.285384615 C0.0407692308,0.183461538 0.0407692308,0.122307692 0.0407692308,0 Z" id="Shape" fill="#01A982"></path>
            <path d="M45.3965385,23.8907692 L45.3965385,22.1173077 L45.58,22.1173077 L53.2038462,22.1173077 C54.1211538,22.1173077 55.0384615,22.1580769 55.9353846,22.3619231 C57.4846154,22.7084615 58.3407692,23.7276923 58.7484615,25.1953846 C58.9319231,25.9088462 58.9726923,26.6223077 58.9726923,27.3561538 L58.9726923,36.835 L58.9726923,37.0388462 L58.7688462,37.0388462 C55.8946154,37.0388462 53,37.0592308 50.1257692,37.0388462 C49.29,37.0388462 48.4542308,36.9980769 47.6388462,36.8757692 C46.1915385,36.6719231 45.2538462,35.7953846 44.8053846,34.4296154 C44.3161538,32.9619231 44.4384615,31.4942308 45.2538462,30.1488462 C45.8246154,29.2315385 46.6807692,28.7219231 47.7407692,28.5792308 C48.5153846,28.4773077 49.29,28.4161538 50.0646154,28.4161538 C52.1030769,28.3957692 54.1619231,28.4161538 56.2003846,28.4161538 L56.4042308,28.4161538 C56.3838462,27.6007692 56.4653846,26.8057692 56.2615385,26.0311538 C55.9965385,24.91 55.1607692,24.1965385 53.9784615,24.0334615 C53.53,23.9723077 53.0611538,23.9315385 52.6126923,23.9315385 L45.6003846,23.9315385 C45.5392308,23.8907692 45.4780769,23.8907692 45.3965385,23.8907692 Z M56.4042308,30.1692308 L56.2207692,30.1692308 L50.2684615,30.1692308 C49.9830769,30.1692308 49.6773077,30.1692308 49.3919231,30.21 C48.5153846,30.3119231 47.8223077,30.6992308 47.435,31.535 C47.2107692,32.0038462 47.1496154,32.5134615 47.1903846,33.0434615 C47.2719231,34.1442308 47.8223077,34.8373077 48.8823077,35.0819231 C49.3511538,35.2042308 49.8607692,35.2653846 50.35,35.2653846 C52.3069231,35.2857692 54.2434615,35.2653846 56.2003846,35.2653846 L56.4042308,35.2653846 L56.4042308,30.1692308 Z" id="Shape" fill="#000000"></path>
            <path d="M31.4126923,30.7603846 C31.4126923,31.0253846 31.3923077,31.27 31.4126923,31.5146154 C31.4330769,32.0242308 31.4330769,32.5338462 31.535,33.0230769 C31.7592308,34.185 32.5746154,34.9596154 33.7569231,35.1430769 C34.2257692,35.2246154 34.715,35.2653846 35.2042308,35.2653846 C37.5484615,35.2857692 39.8926923,35.2653846 42.2165385,35.2653846 L42.4407692,35.2653846 L42.4407692,37.0184615 L42.2573077,37.0184615 L34.6130769,37.0184615 C33.7161538,37.0184615 32.8192308,36.9776923 31.9223077,36.7942308 C30.4138462,36.4884615 29.5373077,35.51 29.1092308,34.0830769 C28.8646154,33.2880769 28.8442308,32.4523077 28.8442308,31.6369231 C28.8442308,29.9042308 28.8238462,28.1511538 28.8442308,26.4184615 C28.8442308,25.5826923 29.0480769,24.7876923 29.4353846,24.0334615 C29.8430769,23.2180769 30.5361538,22.7696154 31.3719231,22.525 C32.2484615,22.26 33.1657692,22.1376923 34.0830769,22.1173077 C35.2857692,22.0969231 36.4884615,22.0969231 37.6707692,22.1173077 C38.4861538,22.1376923 39.3219231,22.1784615 40.1373077,22.2803846 C41.4826923,22.4638462 42.4203846,23.2384615 42.93,24.4819231 C43.5007692,25.8680769 43.4192308,27.2746154 42.7873077,28.62 C42.2369231,29.8023077 41.2584615,30.4342308 39.9742308,30.5973077 C39.22,30.6788462 38.4657692,30.74 37.7115385,30.74 C35.6730769,30.7603846 33.655,30.74 31.6165385,30.74 C31.5757692,30.7603846 31.5146154,30.7603846 31.4126923,30.7603846 Z M31.4126923,29.0073077 L31.5961538,29.0073077 L37.63,29.0073077 C37.9357692,29.0073077 38.2415385,28.9869231 38.5473077,28.9461538 C39.485,28.8034615 40.1576923,28.3142308 40.4838462,27.3969231 C40.6673077,26.8669231 40.6876923,26.3165385 40.5653846,25.7661538 C40.4226923,24.9711538 39.9538462,24.4615385 39.22,24.1761538 C38.7307692,23.9926923 38.2211538,23.9315385 37.7115385,23.9111538 C36.5903846,23.8907692 35.4692308,23.8907692 34.3480769,23.9111538 C34.0626923,23.9111538 33.7773077,23.9315385 33.4919231,23.9723077 C32.9619231,24.0538462 32.4726923,24.2373077 32.1465385,24.6857692 C31.9630769,24.9303846 31.8,25.1953846 31.6776923,25.4807692 C31.4738462,25.8884615 31.4126923,26.3369231 31.4126923,26.7853846 C31.4126923,27.4988462 31.4126923,28.2326923 31.4126923,29.0073077 Z" id="Shape" fill="#000000"></path>
            <path d="M20.7719231,22.1173077 L20.7719231,23.8907692 L20.5680769,23.8907692 L13.515,23.8907692 C12.9646154,23.8907692 12.4142308,23.9519231 11.8842308,24.0538462 C10.7223077,24.2984615 9.94769231,25.175 9.805,26.3573077 C9.76423077,26.7038462 9.74384615,27.0707692 9.74384615,27.4376923 C9.74384615,28.9053846 9.72346154,30.3730769 9.74384615,31.8611538 C9.74384615,32.2688462 9.76423077,32.6765385 9.84576923,33.0638462 C10.07,34.2053846 10.8853846,34.98 12.0676923,35.1634615 C12.5365385,35.245 13.0257692,35.2857692 13.515,35.2857692 C15.8388462,35.3061538 18.1830769,35.2857692 20.5069231,35.2857692 L20.7311538,35.2857692 L20.7311538,37.0592308 L20.5476923,37.0592308 L12.8830769,37.0592308 C11.9453846,37.0592308 11.0076923,37.0184615 10.0903846,36.7942308 C8.60230769,36.4273077 7.76653846,35.4080769 7.37923077,33.9811538 C7.19576923,33.3084615 7.155,32.595 7.155,31.9019231 C7.155,30.2915385 7.13461538,28.7015385 7.155,27.0911538 C7.17538462,26.2146154 7.23653846,25.3380769 7.60346154,24.5226923 C8.15384615,23.2996154 9.07115385,22.5453846 10.3961538,22.3211538 C11.2115385,22.1784615 12.0473077,22.1376923 12.8626923,22.1376923 C15.4107692,22.1173077 17.9792308,22.1376923 20.5273077,22.1376923 C20.6496154,22.1173077 20.7107692,22.1173077 20.7719231,22.1173077 Z" id="Shape" fill="#000000"></path>
            <path d="M61.6430769,22.1173077 L61.8265385,22.1173077 L68.6553846,22.1173077 C69.5930769,22.1173077 70.5103846,22.1580769 71.4073077,22.4230769 C72.7730769,22.8307692 73.5680769,23.7480769 73.7515385,25.1546154 C73.7923077,25.5215385 73.8330769,25.8884615 73.8738462,26.2757692 L73.6903846,26.2757692 L71.55,26.2757692 C71.4276923,26.2757692 71.3665385,26.2553846 71.3461538,26.1330769 C71.3053846,25.9496154 71.2442308,25.7661538 71.1830769,25.5826923 C70.9180769,24.9303846 70.3676923,24.6857692 69.7357692,24.6042308 C69.3076923,24.5634615 68.8796154,24.5226923 68.4515385,24.5226923 L64.3338462,24.5226923 L64.1911538,24.5226923 L64.1911538,36.9776923 L61.6430769,36.9776923 L61.6430769,22.1173077 Z" id="Shape" fill="#000000"></path>
            <path d="M26.2146154,37.0388462 L23.6665385,37.0388462 L23.6665385,16.2057692 L26.2146154,16.2057692 L26.2146154,37.0388462 Z" id="Shape" fill="#000000"></path>
            <path d="M51.3488462,42.9503846 C51.3488462,42.6853846 51.3692308,42.4611538 51.3488462,42.2165385 C51.3080769,41.605 50.9207692,41.2176923 50.2888462,41.1769231 C50.0646154,41.1565385 49.8403846,41.1565385 49.5957692,41.1565385 L47.1496154,41.1565385 L46.9661538,41.1565385 L46.9661538,40.4634615 L47.1088462,40.4634615 L50.2276923,40.4634615 C50.5538462,40.4634615 50.9003846,40.5042308 51.2265385,40.5653846 C51.8788462,40.7080769 52.205,41.1769231 52.3273077,41.8088462 C52.3680769,42.0534615 52.3884615,42.2980769 52.3884615,42.5426923 L52.3884615,46.3138462 L52.3884615,46.4157692 C52.3476923,46.4157692 52.3273077,46.4361538 52.2865385,46.4361538 C50.9411538,46.4361538 49.5753846,46.4157692 48.23,46.4157692 C48.0873077,46.4157692 47.9446154,46.3953846 47.8223077,46.375 C47.1088462,46.2323077 46.6196154,45.6411538 46.5992308,44.8257692 C46.5992308,44.6015385 46.6196154,44.3773077 46.6807692,44.1530769 C46.8642308,43.4192308 47.3738462,43.0115385 48.2096154,42.9911538 C49.0861538,42.9503846 49.9626923,42.9707692 50.8188462,42.9503846 L51.3488462,42.9503846 Z M51.3692308,43.6842308 C51.3284615,43.6842308 51.3284615,43.6638462 51.3080769,43.6638462 C50.4111538,43.6638462 49.5142308,43.6638462 48.6173077,43.6842308 C48.0669231,43.7046154 47.7,44.0715385 47.6796154,44.6015385 C47.6388462,45.2130769 47.9038462,45.5596154 48.495,45.6615385 C48.5765385,45.6819231 48.6784615,45.6819231 48.76,45.6819231 L51.2265385,45.6819231 C51.2673077,45.6819231 51.3080769,45.6819231 51.3488462,45.6615385 C51.3692308,45.0296154 51.3692308,44.3569231 51.3692308,43.6842308 Z" id="Shape" fill="#000000"></path>
            <path d="M43.5823077,40.4226923 L43.5823077,41.1361538 L43.3784615,41.1361538 L40.6876923,41.1361538 C40.4838462,41.1361538 40.2596154,41.1565385 40.0557692,41.1973077 C39.5665385,41.2788462 39.1996154,41.6661538 39.1996154,42.1553846 C39.1792308,42.9911538 39.1792308,43.8269231 39.1996154,44.6626923 C39.22,45.2130769 39.6073077,45.6003846 40.2392308,45.6615385 C40.7080769,45.7023077 41.1769231,45.6819231 41.6253846,45.6411538 C42.135,45.6003846 42.4611538,45.2742308 42.5223077,44.7646154 C42.5630769,44.4180769 42.5223077,44.0511538 42.5223077,43.6638462 L41.605,43.6638462 L41.605,42.9707692 L43.5823077,42.9707692 C43.5619231,43.7046154 43.6638462,44.4180769 43.5007692,45.1315385 C43.3580769,45.7838462 42.9707692,46.2323077 42.2776923,46.3342308 C41.34,46.4769231 40.4023077,46.4565385 39.4646154,46.3342308 C38.6696154,46.2323077 38.2007692,45.58 38.1803846,44.9073077 C38.1396154,43.9492308 38.1192308,42.9707692 38.1803846,42.0126923 C38.2211538,41.075 38.8123077,40.5246154 39.75,40.5042308 C40.8303846,40.4634615 41.9311538,40.4838462 43.0319231,40.4634615 C43.2153846,40.4226923 43.3988462,40.4226923 43.5823077,40.4226923 Z" id="Shape" fill="#000000"></path>
            <path d="M53.4076923,46.375 L53.4076923,45.7838462 L53.6115385,45.7838462 L56.18,45.7838462 C56.4042308,45.7838462 56.6284615,45.7634615 56.8526923,45.7226923 C57.3419231,45.6003846 57.6069231,45.2130769 57.5865385,44.6626923 C57.5661538,44.1530769 57.2196154,43.7861538 56.7303846,43.7453846 C56.3023077,43.7046154 55.8538462,43.725 55.4257692,43.7046154 C55.1607692,43.7046154 54.8753846,43.6842308 54.6103846,43.6434615 C53.6115385,43.5211538 53.265,42.665 53.3669231,41.9107692 C53.4892308,41.0546154 54.0192308,40.5246154 54.9365385,40.4838462 C55.9761538,40.4430769 57.0157692,40.4634615 58.035,40.4430769 C58.0553846,40.4430769 58.0757692,40.4430769 58.0961538,40.4634615 L58.0961538,41.0546154 L57.8923077,41.0546154 L55.4257692,41.0546154 C55.2219231,41.0546154 55.0384615,41.075 54.855,41.1361538 C54.4473077,41.2380769 54.2230769,41.5642308 54.2026923,42.0126923 C54.1823077,42.4815385 54.3657692,42.7873077 54.7938462,42.9096154 C55.0792308,42.9911538 55.4053846,42.9911538 55.7111538,43.0115385 C56.2003846,43.0319231 56.6692308,43.0319231 57.1584615,43.0726923 C57.8311538,43.1542308 58.2388462,43.5211538 58.3815385,44.1938462 C58.4630769,44.4996154 58.4630769,44.8257692 58.4019231,45.1519231 C58.2388462,45.9061538 57.7088462,46.3342308 56.8730769,46.3546154 C55.7723077,46.375 54.6511538,46.375 53.5503846,46.375 C53.4892308,46.3953846 53.4484615,46.375 53.4076923,46.375 Z" id="Shape" fill="#000000"></path>
            <path d="M59.5026923,46.3953846 L59.5026923,45.7838462 L59.7065385,45.7838462 L62.2546154,45.7838462 C62.4788462,45.7838462 62.7234615,45.7634615 62.9273077,45.7226923 C63.4165385,45.6003846 63.6815385,45.2130769 63.6407692,44.6626923 C63.6,44.1734615 63.2738462,43.7861538 62.805,43.7453846 C62.3973077,43.7046154 61.9692308,43.725 61.5411538,43.7046154 C61.2557692,43.6842308 60.95,43.6842308 60.6646154,43.6434615 C59.625,43.5211538 59.3192308,42.6446154 59.4211538,41.8903846 C59.5434615,41.0342308 60.0938462,40.5246154 60.9907692,40.4838462 C62.0303846,40.4430769 63.07,40.4634615 64.0892308,40.4634615 C64.1096154,40.4634615 64.1096154,40.4634615 64.13,40.4838462 L64.13,41.075 L63.9261538,41.075 L61.4392308,41.075 C61.2557692,41.075 61.0519231,41.0953846 60.8684615,41.1565385 C60.4607692,41.2584615 60.2161538,41.5846154 60.2161538,42.0330769 C60.1957692,42.5019231 60.3996154,42.8076923 60.8276923,42.93 C61.1130769,43.0115385 61.4392308,43.0115385 61.745,43.0319231 C62.2342308,43.0523077 62.7030769,43.0523077 63.1923077,43.0930769 C63.865,43.1746154 64.2523077,43.5415385 64.4153846,44.2142308 C64.5173077,44.6015385 64.4969231,44.9888462 64.3746154,45.3761538 C64.1503846,46.0080769 63.6611538,46.3546154 62.9069231,46.375 C61.8673077,46.3953846 60.8276923,46.3953846 59.8084615,46.3953846 C59.7065385,46.3953846 59.6046154,46.3953846 59.5026923,46.3953846 Z" id="Shape" fill="#000000"></path>
            <path d="M44.5811538,38.0580769 L45.6003846,38.0580769 L45.6003846,46.3953846 L44.5811538,46.3953846 L44.5811538,38.0580769 Z" id="Shape" fill="#000000"></path>
        </g>
    </g>
</svg>