<?xml version="1.0" encoding="UTF-8" standalone="no"?>
<svg width="49px" height="35px" viewBox="0 0 49 35" version="1.1" xmlns="http://www.w3.org/2000/svg" xmlns:xlink="http://www.w3.org/1999/xlink">
    <!-- Generator: Sketch 43.2 (39069) - http://www.bohemiancoding.com/sketch -->
    <title>cg-logo-white</title>
    <desc>Created with Sketch.</desc>
    <defs></defs>
    <g id="Page-1" stroke="none" stroke-width="1" fill="none" fill-rule="evenodd">
        <g id="cg-logo-white" fill-rule="nonzero" fill="#FFFFFF">
            <path d="M0.0269972452,0 C0.323966942,0.12108399 0.58044077,0.228714203 0.850413224,0.349798193 C1.24187328,0.524697291 1.63333333,0.686142609 2.03829201,0.861041707 C2.59173554,1.10320969 3.15867769,1.34537767 3.71212121,1.57409187 C4.13057852,1.74899097 4.56253443,1.93734384 4.98099173,2.11224293 C5.58842975,2.36786469 6.19586776,2.63694023 6.78980717,2.89256198 C7.26225897,3.09436864 7.73471076,3.29617528 8.19366391,3.49798193 C8.78760332,3.75360369 9.3815427,4.00922545 9.97548211,4.26484719 C10.5019284,4.4935614 11.0283747,4.70882182 11.554821,4.93753603 C12.162259,5.1931578 12.769697,5.46223333 13.3636364,5.71785509 C14.0115703,6.00038441 14.6730028,6.26945994 15.3209367,6.55198926 C15.9688705,6.82106478 16.6033058,7.1035941 17.2512397,7.38612338 C17.2917355,7.39957717 17.3322314,7.46684603 17.3322314,7.49375359 C17.34573,8.15298868 17.34573,8.81222373 17.34573,9.47145878 C17.34573,9.53872765 17.3187328,9.5656352 17.2512397,9.5656352 L15.7528926,9.5656352 C15.6584022,9.5656352 15.6584022,9.51182009 15.6584022,9.44455123 L15.6584022,7.99154333 C15.6584022,7.91082067 15.6449036,7.87045936 15.5639119,7.84355181 C15.0914601,7.6686527 14.6055096,7.48029983 14.1330578,7.29194697 C13.5661157,7.07668655 12.9991735,6.86142609 12.4322314,6.63271191 C11.6763085,6.3367288 10.9068871,6.05419952 10.1509642,5.7582164 C9.50303031,5.50259467 8.85509641,5.26042666 8.20716255,5.00480494 C7.68071627,4.80299827 7.15426999,4.60119161 6.61432507,4.39938499 C5.76391185,4.07649432 4.91349864,3.74014991 4.0630854,3.41725927 C3.26666667,3.10782241 2.47024794,2.81183932 1.6738292,2.50240246 C1.66033058,2.50240246 1.63333333,2.48894868 1.60633609,2.48894868 L1.60633609,32.5177782 C1.71432507,32.4774169 1.80881543,32.4505093 1.91680441,32.4236018 C2.57823692,32.1948876 3.23966942,31.9796271 3.90110193,31.7509129 C4.31955923,31.6029214 4.73801653,31.4683836 5.16997244,31.3338458 C5.61542699,31.1858543 6.07438018,31.024409 6.51983469,30.8629637 C7.19476584,30.6342495 7.88319558,30.4055353 8.55812673,30.1768211 C9.17906334,29.9750144 9.78650136,29.759754 10.407438,29.5579473 C11.0553719,29.3426869 11.7033058,29.1139727 12.3647383,28.8987123 C13.0936639,28.6565443 13.8225895,28.4143763 14.5515151,28.1587545 C14.9024794,28.0376706 15.2399449,27.9165866 15.5909091,27.8089564 C15.6719008,27.7820488 15.6584022,27.7282337 15.6584022,27.6744186 L15.6584022,25.723621 C15.6584022,25.5756294 15.6584022,25.5756294 15.8068871,25.5756294 L17.2242424,25.5756294 C17.3187328,25.5756294 17.3592287,25.602537 17.3592287,25.7101672 L17.3592287,27.9165866 C17.3592287,28.0376706 17.34573,28.1453008 17.34573,28.2663848 C17.34573,28.3336537 17.3187328,28.374015 17.2512397,28.4009226 C16.8057851,28.5758216 16.346832,28.7372669 15.9013774,28.9121661 C15.4964187,29.0736114 15.0779614,29.2216029 14.6730028,29.3830482 C14.1195592,29.5983087 13.5661157,29.8001153 13.0126722,30.0153757 C12.5132231,30.2037286 12.0137741,30.4055353 11.5143251,30.5938881 C10.5829201,30.9436864 9.65151514,31.3069383 8.72011019,31.6567365 C8.11267218,31.8854507 7.51873277,32.1276187 6.92479339,32.3563329 C6.47933884,32.531232 6.02038569,32.6926773 5.57493114,32.8675764 C4.69752065,33.2039208 3.82011019,33.5402652 2.9292011,33.8766096 C2.13278237,34.1860465 1.32286501,34.4820296 0.526446282,34.7914665 C0.391460055,34.8452816 0.256473829,34.8990967 0.121487603,34.9529118 C0.0539944904,34.9798193 0.0134986226,34.9663656 0.0134986226,34.8856429 L0.0134986226,34.7914665 L0.0134986226,0.188352873 C0.0269972452,0.12108399 0.0269972452,0.0807226598 0.0269972452,0 Z" id="Shape"></path>
            <path d="M30.0614325,15.7678263 L30.0614325,14.5973477 L30.1829201,14.5973477 L35.2314049,14.5973477 C35.838843,14.5973477 36.446281,14.6242552 37.0402204,14.758793 C38.0661157,14.9875072 38.6330578,15.660196 38.9030303,16.6288679 C39.0245179,17.0997501 39.0515151,17.5706323 39.0515151,18.0549683 L39.0515151,24.3109744 L39.0515151,24.4455122 L38.9165289,24.4455122 C37.0132231,24.4455122 35.0964187,24.458966 33.1931129,24.4455122 C32.6396694,24.4455122 32.0862259,24.4186047 31.546281,24.337882 C30.5878788,24.2033442 29.9669422,23.6248318 29.6699724,22.7234288 C29.3460055,21.7547569 29.4269972,20.786085 29.9669422,19.8981357 C30.3449036,19.2927157 30.9118457,18.9563713 31.6137741,18.8621949 C32.1267218,18.794926 32.6396694,18.7545647 33.1526171,18.7545647 C34.5024794,18.7411109 35.8658402,18.7545647 37.2157025,18.7545647 L37.3506887,18.7545647 C37.3371901,18.2164136 37.3911846,17.6917163 37.2561983,17.1804728 C37.0807163,16.4405151 36.5272727,15.9696329 35.7443526,15.8620027 C35.4473829,15.8216414 35.1369146,15.7947338 34.8399449,15.7947338 L30.1964187,15.7947338 C30.1559229,15.7678263 30.115427,15.7678263 30.0614325,15.7678263 Z M37.3506887,19.9115895 L37.2292011,19.9115895 L33.2876033,19.9115895 C33.0986226,19.9115895 32.8961433,19.9115895 32.7071626,19.938497 C32.1267218,20.0057659 31.6677686,20.2613877 31.4112948,20.8129925 C31.2628099,21.1224293 31.222314,21.4587738 31.2493113,21.808572 C31.3033058,22.5350759 31.6677686,22.9925043 32.369697,23.1539497 C32.6801653,23.2346723 33.0176308,23.2750336 33.3415978,23.2750336 C34.6374656,23.2884874 35.9198347,23.2750336 37.2157025,23.2750336 L37.3506887,23.2750336 L37.3506887,19.9115895 Z" id="Shape"></path>
            <path d="M20.8013774,20.301749 C20.8013774,20.4766481 20.7878788,20.6380934 20.8013774,20.7995387 C20.814876,21.1358831 20.814876,21.4722276 20.8823692,21.7951182 C21.030854,22.5619835 21.5707989,23.073227 22.353719,23.194311 C22.6641873,23.2481261 22.9881543,23.2750336 23.3121212,23.2750336 C24.8644628,23.2884874 26.4168044,23.2750336 27.9556474,23.2750336 L28.1041322,23.2750336 L28.1041322,24.4320584 L27.9826446,24.4320584 L22.9206612,24.4320584 C22.3267218,24.4320584 21.7327824,24.4051509 21.138843,24.2840669 C20.1399449,24.0822602 19.5595041,23.436479 19.2760331,22.4947146 C19.1140496,21.9700173 19.100551,21.4184125 19.100551,20.8802614 C19.100551,19.7366904 19.0870524,18.5796656 19.100551,17.4360946 C19.100551,16.8844897 19.2355372,16.3597924 19.492011,15.8620027 C19.7619835,15.3238516 20.2209367,15.0278685 20.7743802,14.8664232 C21.354821,14.6915241 21.962259,14.6108014 22.569697,14.5973477 C23.3661157,14.5838939 24.1625344,14.5838939 24.9454545,14.5973477 C25.4853994,14.6108014 26.038843,14.637709 26.5787879,14.7049779 C27.469697,14.8260619 28.0906336,15.3373054 28.4280992,16.1579858 C28.8060606,17.0728426 28.7520661,18.0011532 28.3336088,18.8891024 C27.969146,19.6694215 27.3212121,20.0864886 26.4707989,20.1941188 C25.9713499,20.2479339 25.4719008,20.2882952 24.9724518,20.2882952 C23.6225895,20.301749 22.2862259,20.2882952 20.9363636,20.2882952 C20.9093664,20.301749 20.8688705,20.301749 20.8013774,20.301749 Z M20.8013774,19.1447242 L20.922865,19.1447242 L24.9184573,19.1447242 C25.1209367,19.1447242 25.323416,19.1312704 25.5258953,19.1043629 C26.146832,19.0101864 26.5922865,18.6872958 26.8082645,18.0818759 C26.9297521,17.7320776 26.9432507,17.3688257 26.862259,17.0055737 C26.7677686,16.4808764 26.4573003,16.144532 25.9713499,15.9561791 C25.6473829,15.8350951 25.3099174,15.7947338 24.9724518,15.78128 C24.2300276,15.7678263 23.4876033,15.7678263 22.745179,15.78128 C22.5561983,15.78128 22.3672176,15.7947338 22.1782369,15.8216414 C21.8272727,15.8754565 21.5033058,15.9965404 21.2873278,16.2925236 C21.1658402,16.4539689 21.0578512,16.6288679 20.9768595,16.8172208 C20.8418733,17.0862964 20.8013774,17.3822795 20.8013774,17.6782625 L20.8013774,19.1447242 Z" id="Shape"></path>
            <path d="M13.7550964,14.5973477 L13.7550964,15.7678263 L13.6201102,15.7678263 L8.94958679,15.7678263 C8.58512397,15.7678263 8.22066116,15.8081876 7.86969698,15.8754565 C7.1002755,16.0369018 6.58732782,16.6154142 6.49283745,17.3957332 C6.4658402,17.6244474 6.4523416,17.8666154 6.4523416,18.1087834 C6.4523416,19.0774553 6.43884296,20.0461272 6.4523416,21.0282529 C6.4523416,21.2973285 6.4658402,21.566404 6.51983469,21.8220257 C6.66831955,22.5754373 7.20826448,23.0866807 7.99118456,23.2077648 C8.30165289,23.2615799 8.62561982,23.2884874 8.94958679,23.2884874 C10.4884297,23.3019412 12.0407713,23.2884874 13.5796143,23.2884874 L13.7280992,23.2884874 L13.7280992,24.458966 L13.6066116,24.458966 L8.53112948,24.458966 C7.91019283,24.458966 7.28925621,24.4320584 6.6818182,24.2840669 C5.69641872,24.0418989 5.1429752,23.3692101 4.88650136,22.4274457 C4.76501378,21.9834711 4.73801653,21.5125889 4.73801653,21.0551605 C4.73801653,19.9923121 4.72451789,18.9429175 4.73801653,17.8800692 C4.75151514,17.3015568 4.79201102,16.7230444 5.03498622,16.1848933 C5.39944904,15.3776667 6.00688705,14.879877 6.88429751,14.7318854 C7.42424243,14.637709 7.97768596,14.6108014 8.51763084,14.6108014 C10.2049587,14.5973477 11.9057851,14.6108014 13.5931129,14.6108014 C13.6741047,14.5973477 13.7146006,14.5973477 13.7550964,14.5973477 Z" id="Shape"></path>
            <path d="M40.8198347,14.5973477 L40.9413224,14.5973477 L45.4633609,14.5973477 C46.0842975,14.5973477 46.6917354,14.6242552 47.285675,14.7991543 C48.1900827,15.0682299 48.7165289,15.6736498 48.8380166,16.6019604 C48.8650136,16.8441284 48.8920109,17.0862964 48.9190083,17.3419181 L48.7975206,17.3419181 L47.3801653,17.3419181 C47.2991737,17.3419181 47.2586776,17.3284643 47.2451789,17.2477417 C47.218182,17.1266577 47.1776859,17.0055737 47.1371903,16.8844897 C46.9617078,16.4539689 46.597245,16.2925236 46.1787878,16.2387084 C45.8953167,16.2118009 45.6118456,16.1848933 45.3283745,16.1848933 L42.6016531,16.1848933 L42.5071627,16.1848933 L42.5071627,24.4051509 L40.8198347,24.4051509 L40.8198347,14.5973477 Z" id="Shape"></path>
            <polygon id="Shape" points="17.3592287 24.4455122 15.6719008 24.4455122 15.6719008 10.6957524 17.3592287 10.6957524"></polygon>
            <path d="M34.0030303,28.3471075 C34.0030303,28.1722083 34.0165289,28.0242168 34.0030303,27.8627715 C33.9760331,27.4591582 33.7195592,27.2035364 33.3011019,27.1766289 C33.1526171,27.1631751 33.0041322,27.1631751 32.8421488,27.1631751 L31.222314,27.1631751 L31.1008265,27.1631751 L31.1008265,26.7057467 L31.1953168,26.7057467 L33.2606061,26.7057467 C33.476584,26.7057467 33.7060606,26.7326542 33.9220386,26.7730156 C34.3539945,26.867192 34.5699724,27.1766289 34.6509642,27.5936959 C34.6779614,27.7551413 34.6914601,27.9165866 34.6914601,28.0780319 L34.6914601,30.5669806 L34.6914601,30.6342495 C34.6644628,30.6342495 34.6509642,30.6477032 34.6239669,30.6477032 C33.7330578,30.6477032 32.8286501,30.6342495 31.937741,30.6342495 C31.8432507,30.6342495 31.7487603,30.6207957 31.6677686,30.6073419 C31.1953168,30.5131655 30.8713499,30.1230059 30.8578512,29.5848549 C30.8578512,29.4368633 30.8713499,29.2888718 30.9118457,29.1408803 C31.0333333,28.6565443 31.3707989,28.3874688 31.9242424,28.374015 C32.5046832,28.3471075 33.085124,28.3605612 33.6520661,28.3471075 L34.0030303,28.3471075 Z M34.0165289,28.8314434 C33.9895317,28.8314434 33.9895317,28.8179896 33.9760331,28.8179896 C33.3820937,28.8179896 32.7881543,28.8179896 32.1942149,28.8314434 C31.8297521,28.8448972 31.5867769,29.0870652 31.5732782,29.4368633 C31.546281,29.8404766 31.7217631,30.0691908 32.1132231,30.1364597 C32.1672176,30.1499135 32.2347108,30.1499135 32.2887052,30.1499135 L33.9220386,30.1499135 C33.9490358,30.1499135 33.9760331,30.1499135 34.0030303,30.1364597 C34.0165289,29.7193927 34.0165289,29.275418 34.0165289,28.8314434 Z" id="Shape"></path>
            <path d="M28.8600551,26.6788391 L28.8600551,27.1497213 L28.7250689,27.1497213 L26.9432507,27.1497213 C26.8082645,27.1497213 26.6597796,27.1631751 26.5247934,27.1900827 C26.2008265,27.2438978 25.9578512,27.4995195 25.9578512,27.8224102 C25.9443526,28.374015 25.9443526,28.9256198 25.9578512,29.4772247 C25.9713499,29.8404766 26.2278237,30.0960984 26.646281,30.1364597 C26.9567493,30.1633673 27.2672176,30.1499135 27.5641873,30.1230059 C27.9016529,30.0960984 28.1176308,29.880838 28.1581267,29.5444936 C28.185124,29.3157794 28.1581267,29.0736114 28.1581267,28.8179896 L27.5506887,28.8179896 L27.5506887,28.3605612 L28.8600551,28.3605612 C28.8465565,28.8448972 28.9140496,29.3157794 28.8060606,29.7866615 C28.7115703,30.2171824 28.4550964,30.5131655 27.9961433,30.5804344 C27.3752066,30.6746108 26.75427,30.661157 26.1333333,30.5804344 C25.6068871,30.5131655 25.2964187,30.0826446 25.2829201,29.63867 C25.2559229,29.0063425 25.2424242,28.3605612 25.2829201,27.7282337 C25.3099174,27.10936 25.7013774,26.746108 26.322314,26.7326542 C27.037741,26.7057467 27.7666667,26.7192005 28.4955923,26.7057467 C28.6170799,26.6788391 28.7385675,26.6788391 28.8600551,26.6788391 Z" id="Shape"></path>
            <path d="M35.3663912,30.6073419 L35.3663912,30.2171824 L35.5013774,30.2171824 L37.2022038,30.2171824 C37.3506887,30.2171824 37.4991735,30.2037286 37.6476584,30.1768211 C37.9716253,30.0960984 38.1471074,29.8404766 38.1336088,29.4772247 C38.1201102,29.1408803 37.8906336,28.8987123 37.5666667,28.8718047 C37.2831956,28.8448972 36.9862259,28.8583509 36.7027548,28.8448972 C36.5272727,28.8448972 36.338292,28.8314434 36.1628099,28.8045358 C35.5013774,28.7238132 35.2719008,28.1587545 35.3393939,27.6609648 C35.4203857,27.0959062 35.7713499,26.746108 36.3787879,26.7192005 C37.0672176,26.6922929 37.7556474,26.7057467 38.4305785,26.6922929 C38.4440771,26.6922929 38.4575758,26.6922929 38.4710744,26.7057467 L38.4710744,27.0959062 L38.3360881,27.0959062 L36.7027548,27.0959062 C36.5677686,27.0959062 36.446281,27.10936 36.3247934,27.1497213 C36.054821,27.2169902 35.9063361,27.4322506 35.8928374,27.7282337 C35.8793388,28.0376706 36.0008265,28.2394772 36.2842975,28.3201999 C36.4732782,28.374015 36.6892562,28.374015 36.8917355,28.3874688 C37.2157025,28.4009226 37.5261708,28.4009226 37.8501378,28.4278301 C38.2955923,28.4816452 38.5655647,28.7238132 38.6600551,29.1677878 C38.7140496,29.3695945 38.7140496,29.5848549 38.6735537,29.8001153 C38.5655647,30.2979051 38.2146006,30.5804344 37.661157,30.5938881 C36.9322314,30.6073419 36.1898072,30.6073419 35.4608815,30.6073419 C35.4203857,30.6207957 35.3933884,30.6073419 35.3663912,30.6073419 Z" id="Shape"></path>
            <path d="M39.4024794,30.6207957 L39.4024794,30.2171824 L39.5374656,30.2171824 L41.2247935,30.2171824 C41.3732782,30.2171824 41.5352616,30.2037286 41.670248,30.1768211 C41.9942148,30.0960984 42.1696969,29.8404766 42.1426999,29.4772247 C42.1157025,29.154334 41.8997244,28.8987123 41.5892563,28.8718047 C41.3192839,28.8448972 41.0358128,28.8583509 40.7523416,28.8448972 C40.5633609,28.8314434 40.3608815,28.8314434 40.1719008,28.8045358 C39.4834711,28.7238132 39.2809917,28.1453008 39.3484849,27.6475111 C39.4294766,27.0824524 39.7939394,26.746108 40.3878788,26.7192005 C41.0763084,26.6922929 41.7647384,26.7057467 42.4396693,26.7057467 C42.453168,26.7057467 42.453168,26.7057467 42.4666667,26.7192005 L42.4666667,27.10936 L42.3316802,27.10936 L40.6848485,27.10936 C40.5633609,27.10936 40.4283747,27.1228138 40.3068871,27.1631751 C40.0369146,27.230444 39.8749311,27.4457044 39.8749311,27.7416875 C39.8614325,28.0511243 39.9964187,28.252931 40.2798898,28.3336537 C40.4688705,28.3874688 40.6848485,28.3874688 40.8873277,28.4009226 C41.2112948,28.4143763 41.5217629,28.4143763 41.8457301,28.4412839 C42.2911846,28.495099 42.5476584,28.7372669 42.6556474,29.1812416 C42.7231404,29.4368633 42.7096417,29.6924851 42.6286501,29.9481069 C42.4801654,30.3651739 42.1561982,30.5938881 41.6567493,30.6073419 C40.9683198,30.6207957 40.2798898,30.6207957 39.6049587,30.6207957 L39.4024794,30.6207957 Z" id="Shape"></path>
            <polygon id="Shape" points="29.5214876 25.1182011 30.1964187 25.1182011 30.1964187 30.6207957 29.5214876 30.6207957"></polygon>
        </g>
    </g>
</svg>