<?xml version="1.0" encoding="UTF-8" standalone="no"?>
<svg width="120px" height="86px" viewBox="0 0 120 86" version="1.1" xmlns="http://www.w3.org/2000/svg" xmlns:xlink="http://www.w3.org/1999/xlink">
    <!-- Generator: Sketch 43.2 (39069) - http://www.bohemiancoding.com/sketch -->
    <title>Clear-glass-White</title>
    <desc>Created with Sketch.</desc>
    <defs></defs>
    <g id="Page-1" stroke="none" stroke-width="1" fill="none" fill-rule="evenodd">
        <g id="Clear-glass-White" fill-rule="nonzero" fill="#FFFFFF">
            <path d="M0.0661157025,0 C0.79338843,0.297520661 1.4214876,0.561983471 2.08264463,0.859504132 C3.04132231,1.2892562 4,1.68595041 4.99173554,2.11570248 C6.34710744,2.7107438 7.73553719,3.30578512 9.09090909,3.8677686 C10.1157025,4.29752066 11.1735537,4.76033058 12.1983471,5.19008264 C13.6859504,5.81818182 15.1735537,6.47933884 16.6280992,7.10743802 C17.785124,7.60330579 18.9421488,8.09917355 20.0661157,8.59504132 C21.5206612,9.2231405 22.9752066,9.85123967 24.4297521,10.4793388 C25.7190083,11.0413223 27.0082645,11.5702479 28.2975207,12.1322314 C29.785124,12.7603306 31.2727273,13.4214876 32.7272727,14.0495868 C34.3140496,14.7438017 35.9338843,15.4049587 37.5206612,16.0991736 C39.107438,16.7603306 40.661157,17.4545455 42.2479339,18.1487603 C42.3471074,18.1818182 42.446281,18.3471074 42.446281,18.4132231 C42.4793388,20.0330579 42.4793388,21.6528926 42.4793388,23.2727273 C42.4793388,23.4380165 42.4132231,23.5041322 42.2479339,23.5041322 L38.5785124,23.5041322 C38.3471074,23.5041322 38.3471074,23.3719008 38.3471074,23.2066116 L38.3471074,19.6363636 C38.3471074,19.4380165 38.3140496,19.338843 38.1157025,19.2727273 C36.9586777,18.8429752 35.768595,18.3801653 34.6115702,17.9173554 C33.2231405,17.3884298 31.8347107,16.8595041 30.446281,16.2975207 C28.5950413,15.5702479 26.7107438,14.8760331 24.8595041,14.1487603 C23.2727273,13.5206612 21.6859504,12.9256198 20.0991736,12.2975207 C18.8099174,11.8016529 17.5206612,11.3057851 16.1983471,10.8099174 C14.1157025,10.0165289 12.0330579,9.19008264 9.95041322,8.39669421 C8,7.63636364 6.04958678,6.90909091 4.09917355,6.14876033 C4.0661157,6.14876033 4,6.11570248 3.9338843,6.11570248 L3.9338843,79.9008264 C4.19834711,79.8016529 4.42975207,79.7355372 4.69421488,79.6694215 C6.31404959,79.107438 7.9338843,78.5785124 9.55371901,78.0165289 C10.5785124,77.6528926 11.6033058,77.322314 12.661157,76.9917355 C13.7520661,76.6280992 14.8760331,76.231405 15.9669421,75.8347107 C17.6198347,75.2727273 19.3057851,74.7107438 20.9586777,74.1487603 C22.4793388,73.6528926 23.9669421,73.1239669 25.4876033,72.6280992 C27.0743802,72.0991736 28.661157,71.5371901 30.2809917,71.0082645 C32.0661157,70.4132231 33.8512397,69.8181818 35.6363636,69.1900826 C36.4958678,68.892562 37.322314,68.5950413 38.1818182,68.3305785 C38.3801653,68.2644628 38.3471074,68.1322314 38.3471074,68 L38.3471074,63.2066116 C38.3471074,62.8429752 38.3471074,62.8429752 38.7107438,62.8429752 L42.1818182,62.8429752 C42.4132231,62.8429752 42.5123967,62.9090909 42.5123967,63.1735537 L42.5123967,68.5950413 C42.5123967,68.892562 42.4793388,69.1570248 42.4793388,69.4545455 C42.4793388,69.6198347 42.4132231,69.7190083 42.2479339,69.785124 C41.1570248,70.214876 40.0330579,70.6115702 38.9421488,71.0413223 C37.9504132,71.4380165 36.9256198,71.8016529 35.9338843,72.1983471 C34.5785124,72.7272727 33.2231405,73.2231405 31.8677686,73.7520661 C30.6446281,74.214876 29.4214876,74.7107438 28.1983471,75.1735537 C25.9173554,76.0330579 23.6363636,76.9256198 21.3553719,77.785124 C19.8677686,78.3471074 18.4132231,78.9421488 16.9586777,79.5041322 C15.8677686,79.9338843 14.7438017,80.3305785 13.6528926,80.7603306 C11.5041322,81.5867769 9.3553719,82.4132231 7.17355372,83.2396694 C5.2231405,84 3.23966942,84.7272727 1.2892562,85.4876033 C0.958677686,85.6198347 0.628099174,85.7520661 0.297520661,85.8842975 C0.132231405,85.9504132 0.0330578512,85.9173554 0.0330578512,85.7190083 L0.0330578512,85.4876033 L0.0330578512,0.462809917 C0.0661157025,0.297520661 0.0661157025,0.198347107 0.0661157025,0 Z" id="Shape"></path>
            <path d="M73.6198347,38.7438017 L73.6198347,35.8677686 L73.9173554,35.8677686 L86.2809917,35.8677686 C87.768595,35.8677686 89.2561983,35.9338843 90.7107438,36.2644628 C93.2231405,36.8264463 94.6115702,38.4793388 95.2727273,40.8595041 C95.5702479,42.0165289 95.6363636,43.1735537 95.6363636,44.3636364 L95.6363636,59.7355372 L95.6363636,60.0661157 L95.3057851,60.0661157 C90.6446281,60.0661157 85.9504132,60.0991736 81.2892562,60.0661157 C79.9338843,60.0661157 78.5785124,60 77.2561983,59.8016529 C74.9090909,59.4710744 73.3884298,58.0495868 72.661157,55.8347107 C71.8677686,53.4545455 72.0661157,51.0743802 73.3884298,48.892562 C74.3140496,47.4049587 75.7024793,46.5785124 77.4214876,46.3471074 C78.677686,46.1818182 79.9338843,46.0826446 81.1900826,46.0826446 C84.4958678,46.0495868 87.8347107,46.0826446 91.1404959,46.0826446 L91.4710744,46.0826446 C91.4380165,44.7603306 91.5702479,43.4710744 91.2396694,42.214876 C90.8099174,40.3966942 89.4545455,39.2396694 87.5371901,38.9752066 C86.8099174,38.8760331 86.0495868,38.8099174 85.322314,38.8099174 L73.9504132,38.8099174 C73.8512397,38.7438017 73.7520661,38.7438017 73.6198347,38.7438017 Z M91.4710744,48.9256198 L91.1735537,48.9256198 L81.5206612,48.9256198 C81.0578512,48.9256198 80.5619835,48.9256198 80.0991736,48.9917355 C78.677686,49.1570248 77.553719,49.785124 76.9256198,51.1404959 C76.5619835,51.9008264 76.4628099,52.7272727 76.5289256,53.5867769 C76.661157,55.3719008 77.553719,56.4958678 79.2727273,56.892562 C80.0330579,57.0909091 80.8595041,57.1900826 81.6528926,57.1900826 C84.8264463,57.2231405 87.9669421,57.1900826 91.1404959,57.1900826 L91.4710744,57.1900826 L91.4710744,48.9256198 Z" id="Shape"></path>
            <path d="M50.9421488,49.8842975 C50.9421488,50.3140496 50.9090909,50.7107438 50.9421488,51.107438 C50.9752066,51.9338843 50.9752066,52.7603306 51.1404959,53.553719 C51.5041322,55.4380165 52.8264463,56.6942149 54.7438017,56.9917355 C55.5041322,57.1239669 56.2975207,57.1900826 57.0909091,57.1900826 C60.892562,57.2231405 64.6942149,57.1900826 68.4628099,57.1900826 L68.8264463,57.1900826 L68.8264463,60.0330579 L68.5289256,60.0330579 L56.1322314,60.0330579 C54.677686,60.0330579 53.2231405,59.9669421 51.768595,59.6694215 C49.322314,59.1735537 47.9008264,57.5867769 47.2066116,55.2727273 C46.8099174,53.9834711 46.7768595,52.6280992 46.7768595,51.3057851 C46.7768595,48.4958678 46.7438017,45.6528926 46.7768595,42.8429752 C46.7768595,41.4876033 47.107438,40.1983471 47.7355372,38.9752066 C48.3966942,37.6528926 49.5206612,36.9256198 50.8760331,36.5289256 C52.2975207,36.0991736 53.785124,35.9008264 55.2727273,35.8677686 C57.2231405,35.8347107 59.1735537,35.8347107 61.0909091,35.8677686 C62.4132231,35.9008264 63.768595,35.9669421 65.0909091,36.1322314 C67.2727273,36.4297521 68.7933884,37.6859504 69.6198347,39.7024793 C70.5454545,41.9504132 70.4132231,44.231405 69.3884298,46.4132231 C68.4958678,48.3305785 66.9090909,49.3553719 64.8264463,49.6198347 C63.6033058,49.7520661 62.3801653,49.8512397 61.1570248,49.8512397 C57.8512397,49.8842975 54.5785124,49.8512397 51.2727273,49.8512397 C51.2066116,49.8842975 51.107438,49.8842975 50.9421488,49.8842975 Z M50.9421488,47.0413223 L51.2396694,47.0413223 L61.0247934,47.0413223 C61.5206612,47.0413223 62.0165289,47.0082645 62.5123967,46.9421488 C64.0330579,46.7107438 65.1239669,45.9173554 65.6528926,44.4297521 C65.9504132,43.5702479 65.9834711,42.677686 65.785124,41.785124 C65.553719,40.4958678 64.7933884,39.6694215 63.6033058,39.2066116 C62.8099174,38.9090909 61.9834711,38.8099174 61.1570248,38.7768595 C59.338843,38.7438017 57.5206612,38.7438017 55.7024793,38.7768595 C55.2396694,38.7768595 54.7768595,38.8099174 54.3140496,38.8760331 C53.4545455,39.0082645 52.661157,39.3057851 52.1322314,40.0330579 C51.8347107,40.4297521 51.5702479,40.8595041 51.3719008,41.322314 C51.0413223,41.9834711 50.9421488,42.7107438 50.9421488,43.4380165 C50.9421488,44.5950413 50.9421488,45.785124 50.9421488,47.0413223 Z" id="Shape"></path>
            <path d="M33.6859504,35.8677686 L33.6859504,38.7438017 L33.3553719,38.7438017 L21.9173554,38.7438017 C21.0247934,38.7438017 20.1322314,38.8429752 19.2727273,39.0082645 C17.3884298,39.4049587 16.1322314,40.8264463 15.9008264,42.7438017 C15.8347107,43.3057851 15.8016529,43.9008264 15.8016529,44.4958678 C15.8016529,46.8760331 15.768595,49.2561983 15.8016529,51.6694215 C15.8016529,52.3305785 15.8347107,52.9917355 15.9669421,53.6198347 C16.3305785,55.4710744 17.6528926,56.7272727 19.5702479,57.0247934 C20.3305785,57.1570248 21.1239669,57.2231405 21.9173554,57.2231405 C25.6859504,57.2561983 29.4876033,57.2231405 33.2561983,57.2231405 L33.6198347,57.2231405 L33.6198347,60.0991736 L33.322314,60.0991736 L20.892562,60.0991736 C19.3719008,60.0991736 17.8512397,60.0330579 16.3636364,59.6694215 C13.9504132,59.0743802 12.5950413,57.4214876 11.9669421,55.107438 C11.6694215,54.0165289 11.6033058,52.8595041 11.6033058,51.7355372 C11.6033058,49.1239669 11.5702479,46.5454545 11.6033058,43.9338843 C11.6363636,42.5123967 11.7355372,41.0909091 12.3305785,39.768595 C13.2231405,37.785124 14.7107438,36.5619835 16.8595041,36.1983471 C18.1818182,35.9669421 19.5371901,35.9008264 20.8595041,35.9008264 C24.9917355,35.8677686 29.1570248,35.9008264 33.2892562,35.9008264 C33.4876033,35.8677686 33.5867769,35.8677686 33.6859504,35.8677686 Z" id="Shape"></path>
            <path d="M99.9669421,35.8677686 L100.264463,35.8677686 L111.338843,35.8677686 C112.859504,35.8677686 114.347107,35.9338843 115.801653,36.3636364 C118.016529,37.0247934 119.305785,38.5123967 119.603306,40.7933884 C119.669421,41.3884298 119.735537,41.9834711 119.801653,42.6115702 L119.504132,42.6115702 L116.033058,42.6115702 C115.834711,42.6115702 115.735537,42.5785124 115.702479,42.3801653 C115.636364,42.0826446 115.53719,41.785124 115.438017,41.4876033 C115.008264,40.4297521 114.115702,40.0330579 113.090909,39.9008264 C112.396694,39.8347107 111.702479,39.768595 111.008264,39.768595 L104.330579,39.768595 L104.099174,39.768595 L104.099174,59.9669421 L99.9669421,59.9669421 L99.9669421,35.8677686 Z" id="Shape"></path>
            <path d="M42.5123967,60.0661157 L38.3801653,60.0661157 L38.3801653,26.2809917 L42.5123967,26.2809917 L42.5123967,60.0661157 Z" id="Shape"></path>
            <path d="M83.2727273,69.6528926 C83.2727273,69.2231405 83.3057851,68.8595041 83.2727273,68.4628099 C83.2066116,67.4710744 82.5785124,66.8429752 81.553719,66.7768595 C81.1900826,66.7438017 80.8264463,66.7438017 80.4297521,66.7438017 L76.4628099,66.7438017 L76.1652893,66.7438017 L76.1652893,65.6198347 L76.3966942,65.6198347 L81.4545455,65.6198347 C81.9834711,65.6198347 82.5454545,65.6859504 83.0743802,65.785124 C84.1322314,66.0165289 84.661157,66.7768595 84.8595041,67.8016529 C84.9256198,68.1983471 84.9586777,68.5950413 84.9586777,68.9917355 L84.9586777,75.107438 L84.9586777,75.2727273 C84.892562,75.2727273 84.8595041,75.3057851 84.7933884,75.3057851 C82.6115702,75.3057851 80.3966942,75.2727273 78.214876,75.2727273 C77.9834711,75.2727273 77.7520661,75.2396694 77.553719,75.2066116 C76.3966942,74.9752066 75.6033058,74.0165289 75.5702479,72.6942149 C75.5702479,72.3305785 75.6033058,71.9669421 75.7024793,71.6033058 C76,70.4132231 76.8264463,69.7520661 78.1818182,69.7190083 C79.6033058,69.6528926 81.0247934,69.6859504 82.4132231,69.6528926 L83.2727273,69.6528926 Z M83.3057851,70.8429752 C83.2396694,70.8429752 83.2396694,70.8099174 83.2066116,70.8099174 C81.7520661,70.8099174 80.2975207,70.8099174 78.8429752,70.8429752 C77.9504132,70.8760331 77.3553719,71.4710744 77.322314,72.3305785 C77.2561983,73.322314 77.6859504,73.8842975 78.6446281,74.0495868 C78.7768595,74.0826446 78.9421488,74.0826446 79.0743802,74.0826446 L83.0743802,74.0826446 C83.1404959,74.0826446 83.2066116,74.0826446 83.2727273,74.0495868 C83.3057851,73.0247934 83.3057851,71.9338843 83.3057851,70.8429752 Z" id="Shape"></path>
            <path d="M70.677686,65.553719 L70.677686,66.7107438 L70.3471074,66.7107438 L65.9834711,66.7107438 C65.6528926,66.7107438 65.2892562,66.7438017 64.9586777,66.8099174 C64.1652893,66.9421488 63.5702479,67.5702479 63.5702479,68.3636364 C63.5371901,69.7190083 63.5371901,71.0743802 63.5702479,72.4297521 C63.6033058,73.322314 64.231405,73.9504132 65.2561983,74.0495868 C66.0165289,74.1157025 66.7768595,74.0826446 67.5041322,74.0165289 C68.3305785,73.9504132 68.8595041,73.4214876 68.9586777,72.5950413 C69.0247934,72.0330579 68.9586777,71.4380165 68.9586777,70.8099174 L67.4710744,70.8099174 L67.4710744,69.6859504 L70.677686,69.6859504 C70.6446281,70.8760331 70.8099174,72.0330579 70.5454545,73.1900826 C70.3140496,74.2479339 69.6859504,74.9752066 68.5619835,75.1404959 C67.0413223,75.3719008 65.5206612,75.338843 64,75.1404959 C62.7107438,74.9752066 61.9504132,73.9173554 61.9173554,72.8264463 C61.8512397,71.2727273 61.8181818,69.6859504 61.9173554,68.1322314 C61.9834711,66.6115702 62.9421488,65.7190083 64.4628099,65.6859504 C66.214876,65.6198347 68,65.6528926 69.785124,65.6198347 C70.0826446,65.553719 70.3801653,65.553719 70.677686,65.553719 Z" id="Shape"></path>
            <path d="M86.6115702,75.2066116 L86.6115702,74.2479339 L86.9421488,74.2479339 L91.107438,74.2479339 C91.4710744,74.2479339 91.8347107,74.214876 92.1983471,74.1487603 C92.9917355,73.9504132 93.4214876,73.322314 93.3884298,72.4297521 C93.3553719,71.6033058 92.7933884,71.0082645 92,70.9421488 C91.3057851,70.8760331 90.5785124,70.9090909 89.8842975,70.8760331 C89.4545455,70.8760331 88.9917355,70.8429752 88.5619835,70.7768595 C86.9421488,70.5785124 86.3801653,69.1900826 86.5454545,67.9669421 C86.7438017,66.5785124 87.6033058,65.7190083 89.0909091,65.6528926 C90.7768595,65.5867769 92.4628099,65.6198347 94.1157025,65.5867769 C94.1487603,65.5867769 94.1818182,65.5867769 94.214876,65.6198347 L94.214876,66.5785124 L93.8842975,66.5785124 L89.8842975,66.5785124 C89.553719,66.5785124 89.2561983,66.6115702 88.9586777,66.7107438 C88.2975207,66.8760331 87.9338843,67.4049587 87.9008264,68.1322314 C87.8677686,68.892562 88.1652893,69.3884298 88.8595041,69.5867769 C89.322314,69.7190083 89.8512397,69.7190083 90.3471074,69.7520661 C91.1404959,69.785124 91.9008264,69.785124 92.6942149,69.8512397 C93.785124,69.9834711 94.446281,70.5785124 94.677686,71.6694215 C94.8099174,72.1652893 94.8099174,72.6942149 94.7107438,73.2231405 C94.446281,74.446281 93.5867769,75.1404959 92.231405,75.1735537 C90.446281,75.2066116 88.6280992,75.2066116 86.8429752,75.2066116 C86.7438017,75.2396694 86.677686,75.2066116 86.6115702,75.2066116 Z" id="Shape"></path>
            <path d="M96.4958678,75.2396694 L96.4958678,74.2479339 L96.8264463,74.2479339 L100.958678,74.2479339 C101.322314,74.2479339 101.719008,74.214876 102.049587,74.1487603 C102.842975,73.9504132 103.272727,73.322314 103.206612,72.4297521 C103.140496,71.6363636 102.61157,71.0082645 101.85124,70.9421488 C101.190083,70.8760331 100.495868,70.9090909 99.8016529,70.8760331 C99.338843,70.8429752 98.8429752,70.8429752 98.3801653,70.7768595 C96.6942149,70.5785124 96.1983471,69.1570248 96.3636364,67.9338843 C96.5619835,66.5454545 97.4545455,65.7190083 98.9090909,65.6528926 C100.595041,65.5867769 102.280992,65.6198347 103.933884,65.6198347 C103.966942,65.6198347 103.966942,65.6198347 104,65.6528926 L104,66.6115702 L103.669421,66.6115702 L99.6363636,66.6115702 C99.338843,66.6115702 99.0082645,66.6446281 98.7107438,66.7438017 C98.0495868,66.9090909 97.6528926,67.4380165 97.6528926,68.1652893 C97.6198347,68.9256198 97.9504132,69.4214876 98.6446281,69.6198347 C99.107438,69.7520661 99.6363636,69.7520661 100.132231,69.785124 C100.92562,69.8181818 101.68595,69.8181818 102.479339,69.8842975 C103.570248,70.0165289 104.198347,70.6115702 104.46281,71.7024793 C104.628099,72.3305785 104.595041,72.9586777 104.396694,73.5867769 C104.033058,74.6115702 103.239669,75.1735537 102.016529,75.2066116 C100.330579,75.2396694 98.6446281,75.2396694 96.9917355,75.2396694 C96.8264463,75.2396694 96.661157,75.2396694 96.4958678,75.2396694 Z" id="Shape"></path>
            <path d="M72.2975207,61.7190083 L73.9504132,61.7190083 L73.9504132,75.2396694 L72.2975207,75.2396694 L72.2975207,61.7190083 Z" id="Shape"></path>
        </g>
    </g>
</svg>