<?xml version="1.0" encoding="utf-8"?>
<!-- Generator: Adobe Illustrator 21.0.2, SVG Export Plug-In . SVG Version: 6.00 Build 0)  -->
<svg version="1.1" id="Layer_1" xmlns="http://www.w3.org/2000/svg" xmlns:xlink="http://www.w3.org/1999/xlink" x="0px" y="0px"
	 viewBox="0 0 750 400" style="enable-background:new 0 0 750 400;" xml:space="preserve">
<style type="text/css">
	.st0{fill:#01A982;}
</style>
<path class="st0" d="M201.2,58c2.2,0.9,4.1,1.7,6.1,2.6c2.9,1.3,5.8,2.5,8.8,3.8c4.1,1.8,8.3,3.6,12.4,5.3c3.1,1.3,6.3,2.7,9.4,4
	c4.5,1.9,9,3.9,13.4,5.8c3.5,1.5,7,3,10.4,4.5c4.4,1.9,8.8,3.8,13.2,5.7c3.9,1.7,7.8,3.3,11.7,5c4.5,1.9,9,3.9,13.4,5.8
	c4.8,2.1,9.7,4.1,14.5,6.2c4.8,2,9.5,4.1,14.3,6.2c0.3,0.1,0.6,0.6,0.6,0.8c0.1,4.9,0.1,9.8,0.1,14.7c0,0.5-0.2,0.7-0.7,0.7
	c-3.7,0-7.4,0-11.1,0c-0.7,0-0.7-0.4-0.7-0.9c0-3.6,0-7.2,0-10.8c0-0.6-0.1-0.9-0.7-1.1c-3.5-1.3-7.1-2.7-10.6-4.1
	c-4.2-1.6-8.4-3.2-12.6-4.9c-5.6-2.2-11.3-4.3-16.9-6.5c-4.8-1.9-9.6-3.7-14.4-5.6c-3.9-1.5-7.8-3-11.8-4.5
	c-6.3-2.4-12.6-4.9-18.9-7.3c-5.9-2.3-11.8-4.5-17.7-6.8c-0.1,0-0.3-0.1-0.5-0.1c0,74.4,0,148.7,0,223.2c0.8-0.3,1.5-0.5,2.3-0.7
	c4.9-1.7,9.8-3.3,14.7-5c3.1-1.1,6.2-2.1,9.4-3.1c3.3-1.1,6.7-2.3,10-3.5c5-1.7,10.1-3.4,15.1-5.1c4.6-1.5,9.1-3.1,13.7-4.6
	c4.8-1.6,9.6-3.3,14.5-4.9c5.4-1.8,10.8-3.6,16.2-5.5c2.6-0.9,5.1-1.8,7.7-2.6c0.6-0.2,0.5-0.6,0.5-1c0-4.8,0-9.7,0-14.5
	c0-1.1,0-1.1,1.1-1.1c3.5,0,7,0,10.5,0c0.7,0,1,0.2,1,1c0,5.5,0,10.9,0,16.4c0,0.9-0.1,1.7-0.1,2.6c0,0.5-0.2,0.8-0.7,1
	c-3.3,1.3-6.7,2.5-10,3.8c-3,1.2-6.1,2.3-9.1,3.5c-4.1,1.6-8.2,3.1-12.3,4.7c-3.7,1.4-7.4,2.9-11.1,4.3c-6.9,2.6-13.8,5.3-20.7,7.9
	c-4.5,1.7-8.9,3.5-13.3,5.2c-3.3,1.3-6.7,2.5-10,3.8c-6.5,2.5-13,5-19.6,7.5c-5.9,2.3-11.9,4.5-17.8,6.8c-1,0.4-2,0.8-3,1.2
	c-0.5,0.2-0.8,0.1-0.8-0.5c0-0.2,0-0.5,0-0.7c0-85.7,0-171.4,0-257.2C201.2,58.9,201.2,58.6,201.2,58z"/>
<path d="M423.7,175.2c0-2.9,0-5.7,0-8.7c0.3,0,0.6,0,0.9,0c12.5,0,24.9,0,37.4,0c4.5,0,9,0.2,13.4,1.2c7.6,1.7,11.8,6.7,13.8,13.9
	c0.9,3.5,1.1,7,1.1,10.6c0,15.5,0,31,0,46.5c0,0.3,0,0.6,0,1c-0.4,0-0.7,0-1,0c-14.1,0-28.3,0.1-42.4,0c-4.1,0-8.2-0.2-12.2-0.8
	c-7.1-1-11.7-5.3-13.9-12c-2.4-7.2-1.8-14.4,2.2-21c2.8-4.5,7-7,12.2-7.7c3.8-0.5,7.6-0.8,11.4-0.8c10-0.1,20.1,0,30.1,0
	c0.3,0,0.6,0,1,0c-0.1-4,0.3-7.9-0.7-11.7c-1.3-5.5-5.4-9-11.2-9.8c-2.2-0.3-4.5-0.5-6.7-0.5c-11.5,0-23,0-34.4,0
	C424.4,175.2,424.1,175.2,423.7,175.2z M477.7,206c-0.4,0-0.6,0-0.9,0c-9.7,0-19.4,0-29.2,0c-1.4,0-2.9,0-4.3,0.2
	c-4.3,0.5-7.7,2.4-9.6,6.5c-1.1,2.3-1.4,4.8-1.2,7.4c0.4,5.4,3.1,8.8,8.3,10c2.3,0.6,4.8,0.9,7.2,0.9c9.6,0.1,19.1,0,28.7,0
	c0.3,0,0.6,0,1,0C477.7,222.6,477.7,214.4,477.7,206z"/>
<path d="M355.1,208.9c0,1.3-0.1,2.5,0,3.7c0.1,2.5,0.1,5,0.6,7.4c1.1,5.7,5.1,9.5,10.9,10.4c2.3,0.4,4.7,0.6,7.1,0.6
	c11.5,0.1,23,0,34.4,0c0.4,0,0.7,0,1.1,0c0,2.9,0,5.7,0,8.6c-0.3,0-0.6,0-0.9,0c-12.5,0-25,0-37.5,0c-4.4,0-8.8-0.2-13.2-1.1
	c-7.4-1.5-11.7-6.3-13.8-13.3c-1.2-3.9-1.3-8-1.3-12c0-8.5-0.1-17.1,0-25.6c0-4.1,1-8,2.9-11.7c2-4,5.4-6.2,9.5-7.4
	c4.3-1.3,8.8-1.9,13.3-2c5.9-0.1,11.8-0.1,17.6,0c4,0.1,8.1,0.3,12.1,0.8c6.6,0.9,11.2,4.7,13.7,10.8c2.8,6.8,2.4,13.7-0.7,20.3
	c-2.7,5.8-7.5,8.9-13.8,9.7c-3.7,0.4-7.4,0.7-11.1,0.7c-10,0.1-19.9,0-29.9,0C355.9,208.9,355.6,208.9,355.1,208.9z M355.1,200.3
	c0.4,0,0.6,0,0.9,0c9.9,0,19.8,0,29.6,0c1.5,0,3-0.1,4.5-0.3c4.6-0.7,7.9-3.1,9.5-7.6c0.9-2.6,1-5.3,0.4-8c-0.7-3.9-3-6.4-6.6-7.8
	c-2.4-0.9-4.9-1.2-7.4-1.3c-5.5-0.1-11-0.1-16.5,0c-1.4,0-2.8,0.1-4.2,0.3c-2.6,0.4-5,1.3-6.6,3.5c-0.9,1.2-1.7,2.5-2.3,3.9
	c-1,2-1.3,4.2-1.3,6.4C355.1,192.9,355.1,196.5,355.1,200.3z"/>
<path d="M302.9,166.5c0,2.9,0,5.8,0,8.7c-0.3,0-0.7,0-1,0c-11.5,0-23.1,0-34.6,0c-2.7,0-5.4,0.3-8,0.8c-5.7,1.2-9.5,5.5-10.2,11.3
	c-0.2,1.7-0.3,3.5-0.3,5.3c0,7.2-0.1,14.4,0,21.7c0,2,0.1,4,0.5,5.9c1.1,5.6,5.1,9.4,10.9,10.3c2.3,0.4,4.7,0.6,7.1,0.6
	c11.4,0.1,22.9,0,34.3,0c0.4,0,0.7,0,1.1,0c0,2.9,0,5.7,0,8.7c-0.3,0-0.6,0-0.9,0c-12.5,0-25,0-37.6,0c-4.6,0-9.2-0.2-13.7-1.3
	c-7.3-1.8-11.4-6.8-13.3-13.8c-0.9-3.3-1.1-6.8-1.1-10.2c0-7.9-0.1-15.7,0-23.6c0.1-4.3,0.4-8.6,2.2-12.6c2.7-6,7.2-9.7,13.7-10.8
	c4-0.7,8.1-0.9,12.1-0.9c12.5-0.1,25.1,0,37.6,0C302.3,166.5,302.6,166.5,302.9,166.5z"/>
<path d="M503.4,166.5c0.3,0,0.6,0,0.9,0c11.2,0,22.3,0,33.5,0c4.6,0,9.1,0.2,13.5,1.5c6.7,2,10.6,6.5,11.5,13.4
	c0.2,1.8,0.4,3.6,0.6,5.5c-0.4,0-0.7,0-0.9,0c-3.5,0-7,0-10.5,0c-0.6,0-0.9-0.1-1-0.7c-0.2-0.9-0.5-1.8-0.8-2.7
	c-1.3-3.2-4-4.4-7.1-4.8c-2.1-0.2-4.2-0.4-6.3-0.4c-6.7,0-13.5,0-20.2,0c-0.2,0-0.4,0-0.7,0c0,20.4,0,40.7,0,61.1
	c-4.2,0-8.3,0-12.5,0C503.4,215.3,503.4,191,503.4,166.5z"/>
<path d="M329.6,239.7c-4.2,0-8.3,0-12.5,0c0-34.1,0-68.1,0-102.2c4.1,0,8.3,0,12.5,0C329.6,171.5,329.6,205.5,329.6,239.7z"/>
<path d="M452.9,268.7c0-1.3,0.1-2.4,0-3.6c-0.2-3-2.1-4.9-5.2-5.1c-1.1-0.1-2.2-0.1-3.4-0.1c-4,0-8,0-12,0c-0.3,0-0.6,0-0.9,0
	c0-1.2,0-2.3,0-3.4c0.3,0,0.5,0,0.7,0c5.1,0,10.2,0,15.3,0c1.6,0,3.3,0.2,4.9,0.5c3.2,0.7,4.8,3,5.4,6.1c0.2,1.2,0.3,2.4,0.3,3.6
	c0,6.2,0,12.4,0,18.5c0,0.2,0,0.3,0,0.5c-0.2,0-0.3,0.1-0.5,0.1c-6.6,0-13.3-0.1-19.9-0.1c-0.7,0-1.4-0.1-2-0.2
	c-3.5-0.7-5.9-3.6-6-7.6c0-1.1,0.1-2.2,0.4-3.3c0.9-3.6,3.4-5.6,7.5-5.7c4.3-0.2,8.6-0.1,12.8-0.2
	C451.2,268.7,452,268.7,452.9,268.7z M453,272.3c-0.2,0-0.2-0.1-0.3-0.1c-4.4,0-8.8,0-13.2,0.1c-2.7,0.1-4.5,1.9-4.6,4.5
	c-0.2,3,1.1,4.7,4,5.2c0.4,0.1,0.9,0.1,1.3,0.1c4,0,8.1,0,12.1,0c0.2,0,0.4,0,0.6-0.1C453,278.9,453,275.6,453,272.3z"/>
<path d="M414.8,256.3c0,1.2,0,2.3,0,3.5c-0.3,0-0.6,0-1,0c-4.4,0-8.8,0-13.2,0c-1,0-2.1,0.1-3.1,0.3c-2.4,0.4-4.2,2.3-4.2,4.7
	c-0.1,4.1-0.1,8.2,0,12.3c0.1,2.7,2,4.6,5.1,4.9c2.3,0.2,4.6,0.1,6.8-0.1c2.5-0.2,4.1-1.8,4.4-4.3c0.2-1.7,0-3.5,0-5.4
	c-1.5,0-2.9,0-4.5,0c0-1.2,0-2.3,0-3.4c3.2,0,6.4,0,9.7,0c-0.1,3.6,0.4,7.1-0.4,10.6c-0.7,3.2-2.6,5.4-6,5.9
	c-4.6,0.7-9.2,0.6-13.8,0c-3.9-0.5-6.2-3.7-6.3-7c-0.2-4.7-0.3-9.5,0-14.2c0.2-4.6,3.1-7.3,7.7-7.4c5.3-0.2,10.7-0.1,16.1-0.2
	C413,256.3,413.9,256.3,414.8,256.3z"/>
<path d="M463,285.5c0-1,0-1.9,0-2.9c0.3,0,0.6,0,1,0c4.2,0,8.4,0,12.6,0c1.1,0,2.2-0.1,3.3-0.3c2.4-0.6,3.7-2.5,3.6-5.2
	c-0.1-2.5-1.8-4.3-4.2-4.5c-2.1-0.2-4.3-0.1-6.4-0.2c-1.3,0-2.7-0.1-4-0.3c-4.9-0.6-6.6-4.8-6.1-8.5c0.6-4.2,3.2-6.8,7.7-7
	c5.1-0.2,10.2-0.1,15.2-0.2c0.1,0,0.2,0,0.3,0.1c0,0.9,0,1.9,0,2.9c-0.4,0-0.7,0-1,0c-4,0-8.1,0-12.1,0c-1,0-1.9,0.1-2.8,0.4
	c-2,0.5-3.1,2.1-3.2,4.3c-0.1,2.3,0.8,3.8,2.9,4.4c1.4,0.4,3,0.4,4.5,0.5c2.4,0.1,4.7,0.1,7.1,0.3c3.3,0.4,5.3,2.2,6,5.5
	c0.4,1.5,0.4,3.1,0.1,4.7c-0.8,3.7-3.4,5.8-7.5,5.9c-5.4,0.1-10.9,0.1-16.3,0.1C463.4,285.6,463.2,285.5,463,285.5z"/>
<path d="M492.9,285.6c0-1.1,0-2,0-3c0.4,0,0.7,0,1,0c4.2,0,8.3,0,12.5,0c1.1,0,2.3-0.1,3.3-0.3c2.4-0.6,3.7-2.5,3.5-5.2
	c-0.2-2.4-1.8-4.3-4.1-4.5c-2-0.2-4.1-0.1-6.2-0.2c-1.4-0.1-2.9-0.1-4.3-0.3c-5.1-0.6-6.6-4.9-6.1-8.6c0.6-4.2,3.3-6.7,7.7-6.9
	c5.1-0.2,10.2-0.1,15.2-0.1c0.1,0,0.1,0,0.2,0.1c0,0.9,0,1.9,0,2.9c-0.3,0-0.6,0-1,0c-4.1,0-8.1,0-12.2,0c-0.9,0-1.9,0.1-2.8,0.4
	c-2,0.5-3.2,2.1-3.2,4.3c-0.1,2.3,0.9,3.8,3,4.4c1.4,0.4,3,0.4,4.5,0.5c2.4,0.1,4.7,0.1,7.1,0.3c3.3,0.4,5.2,2.2,6,5.5
	c0.5,1.9,0.4,3.8-0.2,5.7c-1.1,3.1-3.5,4.8-7.2,4.9c-5.1,0.1-10.2,0.1-15.2,0.1C493.9,285.6,493.4,285.6,492.9,285.6z"/>
<path d="M419.7,244.7c1.7,0,3.3,0,5,0c0,13.6,0,27.2,0,40.9c-1.6,0-3.3,0-5,0C419.7,271.9,419.7,258.3,419.7,244.7z"/>
</svg>
