<?xml version="1.0" encoding="UTF-8" standalone="no"?>
<svg width="119px" height="53px" viewBox="0 0 119 53" version="1.1" xmlns="http://www.w3.org/2000/svg" xmlns:xlink="http://www.w3.org/1999/xlink">
    <!-- Generator: Sketch 43.2 (39069) - http://www.bohemiancoding.com/sketch -->
    <title>logo</title>
    <desc>Created with Sketch.</desc>
    <defs>
        <linearGradient x1="74.7022309%" y1="260.343201%" x2="43.207226%" y2="5.88444122%" id="linearGradient-1">
            <stop stop-color="#FFFFFF" offset="0%"></stop>
            <stop stop-color="#C2C1C1" offset="100%"></stop>
        </linearGradient>
        <linearGradient x1="61.7220308%" y1="218.615651%" x2="46.2831453%" y2="-7.71089038%" id="linearGradient-2">
            <stop stop-color="#FFFFFF" offset="0%"></stop>
            <stop stop-color="#A2A2A1" offset="100%"></stop>
        </linearGradient>
        <linearGradient x1="65.34158%" y1="330.890369%" x2="47.1556974%" y2="-12.1219126%" id="linearGradient-3">
            <stop stop-color="#FFFFFF" offset="0%"></stop>
            <stop stop-color="#B3B3B3" offset="100%"></stop>
        </linearGradient>
    </defs>
    <g id="Page-1" stroke="none" stroke-width="1" fill="none" fill-rule="evenodd">
        <g id="logo" fill-rule="nonzero">
            <path d="M75.757045,26.2556255 C75.7534652,25.1828134 75.6810814,24.5254412 75.5386455,24.1635188 C75.4179162,23.8357766 75.1832453,23.5607862 74.8762864,23.3873577 C74.5260517,23.2134278 74.1368379,23.129683 73.7449057,23.1439254 C72.9643961,23.1439254 72.3378404,23.546118 71.3246099,24.4069511 L71.3246099,25.5747206 L71.3246099,31.6711128 L69.5344506,31.6711128 L69.5344506,26.2556255 C69.5344506,25.1831121 69.4616506,24.4775112 69.3160511,24.1388227 C69.1923864,23.8212254 68.9608508,23.5556707 68.6608526,23.3873577 C68.3162278,23.2159614 67.9331427,23.1334239 67.5473735,23.1474534 C66.7346409,23.1474534 66.1152459,23.606094 65.1055959,24.4387031 L65.1055959,31.6711128 L63.3154362,31.6711128 L63.3154362,21.711382 L64.392435,21.711382 L64.7475638,23.0098612 C65.6601523,22.1994371 66.84166,21.7452815 68.0701,21.711382 C69.3840771,21.7327236 70.3436026,22.085524 70.8054638,23.1439254 C72.0442542,22.085524 73.1505726,21.7327236 74.2676323,21.711382 C76.6234823,21.7327236 77.5436242,22.9463571 77.5436242,25.3771524 L77.5436242,31.6711128 L75.7534645,31.6711128 L75.757045,26.2556255 Z M104.577181,23.4472209 L104.577181,24.2013148 L107.067114,24.2013148 L107.067114,23.4472209 L104.577181,23.4472209 Z M80.033557,31.6497712 L80.033557,21.696228 L81.8120805,21.696228 L81.8120805,31.6497712 L80.033557,31.6497712 Z M94.9799419,19.9194631 L96.0475199,19.9194631 L96.6165101,21.6452899 L98.8840891,21.6435178 L98.8912032,23.1136274 L96.6165101,23.1153994 L96.6165101,29.1685451 C96.6165101,30.2377651 97.9557002,30.1479478 98.8912036,30.1479478 L98.8912036,31.6042235 C98.5749881,31.662458 96.2270558,31.8559553 95.3985729,30.7869469 C95.1126191,30.4179752 94.9731544,29.9979213 94.9731544,29.1685451 L94.9731544,27.3981116 L94.9799419,19.9194631 Z M84.3036159,29.6000199 C84.3036159,29.6000199 86.736636,30.1820121 87.8464347,30.1820121 C88.9562333,30.1820121 90.5569045,30.3029517 90.5569045,28.5244282 C90.5569045,26.0344953 84.1862333,29.3496631 84.3036159,24.3946967 C84.3605286,22.0257034 86.661938,21.698455 88.102542,21.698455 C89.376656,21.6788693 90.6494734,21.7885127 91.9014682,22.0257034 L91.9014682,23.661945 C91.9014682,23.661945 89.994891,23.0963745 88.9028776,23.0963745 C87.8108642,23.0963745 85.9576427,23.1604013 85.9576427,24.3982537 C85.9576427,25.636106 86.4271729,25.8210725 88.3159649,25.8210725 C90.2047568,25.8210725 92.3283139,26.0558376 92.3283139,28.6667101 C92.3283139,31.156643 90.1940857,31.5123477 88.4333474,31.615502 C87.0247568,31.6902 85.4845555,31.3785434 84.3036159,31.1331072 L84.3036159,29.6000199 Z M107.067114,31.6706897 L104.577181,31.6706897 L104.577181,21.7109588 L107.067114,21.7109588 L107.067114,31.6706897 Z M108.489933,26.6814109 C108.489933,25.1317405 108.923893,23.9192122 109.791812,23.0438259 C110.663289,22.1708056 111.881095,21.711382 113.416443,21.711382 C114.985066,21.711382 116.183826,22.1708056 117.048188,23.0438259 C117.91255,23.9168463 118.34651,25.1305576 118.34651,26.6849598 C118.34651,28.2393619 117.91255,29.4424266 117.048188,30.315447 C116.183826,31.1884674 114.984263,31.6711128 113.416443,31.6711128 C111.854804,31.6711128 110.641946,31.1813697 109.777584,30.3118982 C108.921521,29.4412436 108.489933,28.2310812 108.489933,26.6814109 Z M113.452013,29.4017175 C114.849933,29.4017175 115.685839,28.6618518 115.685839,26.5276236 C115.685839,24.3933954 114.618725,23.8882947 113.452013,23.8882947 C112.285302,23.8882947 111.310671,24.3507108 111.310671,26.5276236 C111.317785,28.6618518 112.054094,29.4017175 113.452013,29.4017175 Z M101.614161,31.863194 C102.362637,31.863194 102.969396,31.2564347 102.969396,30.5079591 C102.969396,29.7594836 102.362637,29.1527242 101.614161,29.1527242 C100.865685,29.1527242 100.258926,29.7594836 100.258926,30.5079591 C100.26666,31.2467337 100.875368,31.857417 101.614161,31.863194 L101.614161,31.863194 Z" id="Shape" fill="#171717"></path>
            <circle id="Oval" fill="#E9E9E9" cx="26.4288591" cy="26.4288591" r="26.4288591"></circle>
            <path d="M34.3539597,43.1754362 C19.0373154,41.9304698 26.5533557,41.0732215 4.4747651,36.5273154 C10.5608725,41.2226174 20.4316779,52.8541611 34.3539597,43.1754362 L34.3539597,43.1754362 Z" id="Shape" fill="url(#linearGradient-1)"></path>
            <path d="M50.1650336,24.5934228 C35.6024832,21.7193289 21.352953,11.7880537 6.39201342,14.989396 C6.17503356,15.064094 5.91892617,15.1032215 6.03630872,15.217047 C15.5798658,16.8746309 35.6487248,31.191745 50.1650336,24.5934228 Z" id="Shape" fill="url(#linearGradient-2)"></path>
            <path d="M46.1704698,38.1777852 C38.5157047,36.5273154 21.7513423,23.7646309 2.96302013,28.8938926 C19.4214765,32.6572483 34.2436913,41.8415436 46.1704698,38.1777852 Z" id="Shape" fill="url(#linearGradient-3)"></path>
            <path d="M48.7030872,17.0702685 C40.2124161,10.8383221 29.5341611,-0.473087248 19.7807383,9.93127517 C31.6683893,11.3861074 33.2228188,13.3602685 48.7030872,17.0702685 Z" id="Shape" fill="#A4A4A4"></path>
            <path d="M4.31825503,36.4810738 C21.9327517,36.5273154 32.0098658,23.0852349 50.1685906,24.5934228 C35.6487248,32.0383221 17.8848322,46.0851007 4.31825503,36.4810738 Z" id="Shape" fill="#121212"></path>
            <path d="M48.6604027,17.0667114 C30.9107383,15.672349 21.6624161,29.9894631 2.81362416,28.9543624 C9.97040268,25.7210067 31.045906,6.69080537 48.6604027,17.0667114 Z" id="Shape" fill="#171717"></path>
            <path d="M35.6487248,7.7152349 C25.4862416,7.3595302 15.1138926,16.3837584 5.93315436,15.2063758 C12.5492617,11.2118121 24.8281879,1.08845638 35.6487248,7.7152349 Z" id="Shape" fill="#212121"></path>
            <path d="M17.4010738,45.6653691 C27.9761745,45.6404698 36.8118792,36.3316779 46.4052349,38.1777852 C38.5761745,42.6489933 29.0148322,51.9257718 17.4010738,45.6653691 Z" id="Shape" fill="#010101"></path>
        </g>
    </g>
</svg>